<?xml version="1.0" encoding="utf-8" standalone="no"?>
<!DOCTYPE svg PUBLIC "-//W3C//DTD SVG 1.1//EN"
  "http://www.w3.org/Graphics/SVG/1.1/DTD/svg11.dtd">
<svg xmlns:xlink="http://www.w3.org/1999/xlink" width="487.19952pt" height="235.199495pt" viewBox="0 0 487.19952 235.199495" xmlns="http://www.w3.org/2000/svg" version="1.1">
 <metadata>
  <rdf:RDF xmlns:dc="http://purl.org/dc/elements/1.1/" xmlns:cc="http://creativecommons.org/ns#" xmlns:rdf="http://www.w3.org/1999/02/22-rdf-syntax-ns#">
   <cc:Work>
    <dc:type rdf:resource="http://purl.org/dc/dcmitype/StillImage"/>
    <dc:date>2026-07-06T19:15:00.473836</dc:date>
    <dc:format>image/svg+xml</dc:format>
    <dc:creator>
     <cc:Agent>
      <dc:title>Matplotlib v3.10.0, https://matplotlib.org/</dc:title>
     </cc:Agent>
    </dc:creator>
   </cc:Work>
  </rdf:RDF>
 </metadata>
 <defs>
  <style type="text/css">*{stroke-linejoin: round; stroke-linecap: butt}</style>
 </defs>
 <g id="figure_1">
  <g id="patch_1">
   <path d="M 0 235.199495 
L 487.19952 235.199495 
L 487.19952 0 
L 0 0 
z
" style="fill: #ffffff"/>
  </g>
  <g id="axes_1">
   <g id="patch_2">
    <path d="M 44.760281 172.250726 
L 442.439239 172.250726 
L 442.439239 8.903294 
L 44.760281 8.903294 
z
" style="fill: #ffffff"/>
   </g>
   <g id="matplotlib.axis_1">
    <g id="xtick_1">
     <g id="line2d_1">
      <defs>
       <path id="m33969cc312" d="M 0 0 
L 0 3.4 
" style="stroke: #7a7a7a; stroke-width: 0.5"/>
      </defs>
      <g>
       <use xlink:href="#m33969cc312" x="67.63562" y="172.250726" style="fill: #7a7a7a; stroke: #7a7a7a; stroke-width: 0.5"/>
      </g>
     </g>
     <g id="text_1">
      <!-- Aggregate Alias -->
      <g transform="translate(20.223938 209.007187) rotate(-28) scale(0.067 -0.067)">
       <defs>
        <path id="DejaVuSans-41" d="M 2188 4044 
L 1331 1722 
L 3047 1722 
L 2188 4044 
z
M 1831 4666 
L 2547 4666 
L 4325 0 
L 3669 0 
L 3244 1197 
L 1141 1197 
L 716 0 
L 50 0 
L 1831 4666 
z
" transform="scale(0.015625)"/>
        <path id="DejaVuSans-67" d="M 2906 1791 
Q 2906 2416 2648 2759 
Q 2391 3103 1925 3103 
Q 1463 3103 1205 2759 
Q 947 2416 947 1791 
Q 947 1169 1205 825 
Q 1463 481 1925 481 
Q 2391 481 2648 825 
Q 2906 1169 2906 1791 
z
M 3481 434 
Q 3481 -459 3084 -895 
Q 2688 -1331 1869 -1331 
Q 1566 -1331 1297 -1286 
Q 1028 -1241 775 -1147 
L 775 -588 
Q 1028 -725 1275 -790 
Q 1522 -856 1778 -856 
Q 2344 -856 2625 -561 
Q 2906 -266 2906 331 
L 2906 616 
Q 2728 306 2450 153 
Q 2172 0 1784 0 
Q 1141 0 747 490 
Q 353 981 353 1791 
Q 353 2603 747 3093 
Q 1141 3584 1784 3584 
Q 2172 3584 2450 3431 
Q 2728 3278 2906 2969 
L 2906 3500 
L 3481 3500 
L 3481 434 
z
" transform="scale(0.015625)"/>
        <path id="DejaVuSans-72" d="M 2631 2963 
Q 2534 3019 2420 3045 
Q 2306 3072 2169 3072 
Q 1681 3072 1420 2755 
Q 1159 2438 1159 1844 
L 1159 0 
L 581 0 
L 581 3500 
L 1159 3500 
L 1159 2956 
Q 1341 3275 1631 3429 
Q 1922 3584 2338 3584 
Q 2397 3584 2469 3576 
Q 2541 3569 2628 3553 
L 2631 2963 
z
" transform="scale(0.015625)"/>
        <path id="DejaVuSans-65" d="M 3597 1894 
L 3597 1613 
L 953 1613 
Q 991 1019 1311 708 
Q 1631 397 2203 397 
Q 2534 397 2845 478 
Q 3156 559 3463 722 
L 3463 178 
Q 3153 47 2828 -22 
Q 2503 -91 2169 -91 
Q 1331 -91 842 396 
Q 353 884 353 1716 
Q 353 2575 817 3079 
Q 1281 3584 2069 3584 
Q 2775 3584 3186 3129 
Q 3597 2675 3597 1894 
z
M 3022 2063 
Q 3016 2534 2758 2815 
Q 2500 3097 2075 3097 
Q 1594 3097 1305 2825 
Q 1016 2553 972 2059 
L 3022 2063 
z
" transform="scale(0.015625)"/>
        <path id="DejaVuSans-61" d="M 2194 1759 
Q 1497 1759 1228 1600 
Q 959 1441 959 1056 
Q 959 750 1161 570 
Q 1363 391 1709 391 
Q 2188 391 2477 730 
Q 2766 1069 2766 1631 
L 2766 1759 
L 2194 1759 
z
M 3341 1997 
L 3341 0 
L 2766 0 
L 2766 531 
Q 2569 213 2275 61 
Q 1981 -91 1556 -91 
Q 1019 -91 701 211 
Q 384 513 384 1019 
Q 384 1609 779 1909 
Q 1175 2209 1959 2209 
L 2766 2209 
L 2766 2266 
Q 2766 2663 2505 2880 
Q 2244 3097 1772 3097 
Q 1472 3097 1187 3025 
Q 903 2953 641 2809 
L 641 3341 
Q 956 3463 1253 3523 
Q 1550 3584 1831 3584 
Q 2591 3584 2966 3190 
Q 3341 2797 3341 1997 
z
" transform="scale(0.015625)"/>
        <path id="DejaVuSans-74" d="M 1172 4494 
L 1172 3500 
L 2356 3500 
L 2356 3053 
L 1172 3053 
L 1172 1153 
Q 1172 725 1289 603 
Q 1406 481 1766 481 
L 2356 481 
L 2356 0 
L 1766 0 
Q 1100 0 847 248 
Q 594 497 594 1153 
L 594 3053 
L 172 3053 
L 172 3500 
L 594 3500 
L 594 4494 
L 1172 4494 
z
" transform="scale(0.015625)"/>
        <path id="DejaVuSans-20" transform="scale(0.015625)"/>
        <path id="DejaVuSans-6c" d="M 603 4863 
L 1178 4863 
L 1178 0 
L 603 0 
L 603 4863 
z
" transform="scale(0.015625)"/>
        <path id="DejaVuSans-69" d="M 603 3500 
L 1178 3500 
L 1178 0 
L 603 0 
L 603 3500 
z
M 603 4863 
L 1178 4863 
L 1178 4134 
L 603 4134 
L 603 4863 
z
" transform="scale(0.015625)"/>
        <path id="DejaVuSans-73" d="M 2834 3397 
L 2834 2853 
Q 2591 2978 2328 3040 
Q 2066 3103 1784 3103 
Q 1356 3103 1142 2972 
Q 928 2841 928 2578 
Q 928 2378 1081 2264 
Q 1234 2150 1697 2047 
L 1894 2003 
Q 2506 1872 2764 1633 
Q 3022 1394 3022 966 
Q 3022 478 2636 193 
Q 2250 -91 1575 -91 
Q 1294 -91 989 -36 
Q 684 19 347 128 
L 347 722 
Q 666 556 975 473 
Q 1284 391 1588 391 
Q 1994 391 2212 530 
Q 2431 669 2431 922 
Q 2431 1156 2273 1281 
Q 2116 1406 1581 1522 
L 1381 1569 
Q 847 1681 609 1914 
Q 372 2147 372 2553 
Q 372 3047 722 3315 
Q 1072 3584 1716 3584 
Q 2034 3584 2315 3537 
Q 2597 3491 2834 3397 
z
" transform="scale(0.015625)"/>
       </defs>
       <use xlink:href="#DejaVuSans-41"/>
       <use xlink:href="#DejaVuSans-67" transform="translate(68.408203 0)"/>
       <use xlink:href="#DejaVuSans-67" transform="translate(131.884766 0)"/>
       <use xlink:href="#DejaVuSans-72" transform="translate(195.361328 0)"/>
       <use xlink:href="#DejaVuSans-65" transform="translate(234.224609 0)"/>
       <use xlink:href="#DejaVuSans-67" transform="translate(295.748047 0)"/>
       <use xlink:href="#DejaVuSans-61" transform="translate(359.224609 0)"/>
       <use xlink:href="#DejaVuSans-74" transform="translate(420.503906 0)"/>
       <use xlink:href="#DejaVuSans-65" transform="translate(459.712891 0)"/>
       <use xlink:href="#DejaVuSans-20" transform="translate(521.236328 0)"/>
       <use xlink:href="#DejaVuSans-41" transform="translate(553.023438 0)"/>
       <use xlink:href="#DejaVuSans-6c" transform="translate(621.431641 0)"/>
       <use xlink:href="#DejaVuSans-69" transform="translate(649.214844 0)"/>
       <use xlink:href="#DejaVuSans-61" transform="translate(676.998047 0)"/>
       <use xlink:href="#DejaVuSans-73" transform="translate(738.277344 0)"/>
      </g>
     </g>
    </g>
    <g id="xtick_2">
     <g id="line2d_2">
      <g>
       <use xlink:href="#m33969cc312" x="102.828448" y="172.250726" style="fill: #7a7a7a; stroke: #7a7a7a; stroke-width: 0.5"/>
      </g>
     </g>
     <g id="text_2">
      <!-- Invented Column -->
      <g transform="translate(51.540102 211.068446) rotate(-28) scale(0.067 -0.067)">
       <defs>
        <path id="DejaVuSans-49" d="M 628 4666 
L 1259 4666 
L 1259 0 
L 628 0 
L 628 4666 
z
" transform="scale(0.015625)"/>
        <path id="DejaVuSans-6e" d="M 3513 2113 
L 3513 0 
L 2938 0 
L 2938 2094 
Q 2938 2591 2744 2837 
Q 2550 3084 2163 3084 
Q 1697 3084 1428 2787 
Q 1159 2491 1159 1978 
L 1159 0 
L 581 0 
L 581 3500 
L 1159 3500 
L 1159 2956 
Q 1366 3272 1645 3428 
Q 1925 3584 2291 3584 
Q 2894 3584 3203 3211 
Q 3513 2838 3513 2113 
z
" transform="scale(0.015625)"/>
        <path id="DejaVuSans-76" d="M 191 3500 
L 800 3500 
L 1894 563 
L 2988 3500 
L 3597 3500 
L 2284 0 
L 1503 0 
L 191 3500 
z
" transform="scale(0.015625)"/>
        <path id="DejaVuSans-64" d="M 2906 2969 
L 2906 4863 
L 3481 4863 
L 3481 0 
L 2906 0 
L 2906 525 
Q 2725 213 2448 61 
Q 2172 -91 1784 -91 
Q 1150 -91 751 415 
Q 353 922 353 1747 
Q 353 2572 751 3078 
Q 1150 3584 1784 3584 
Q 2172 3584 2448 3432 
Q 2725 3281 2906 2969 
z
M 947 1747 
Q 947 1113 1208 752 
Q 1469 391 1925 391 
Q 2381 391 2643 752 
Q 2906 1113 2906 1747 
Q 2906 2381 2643 2742 
Q 2381 3103 1925 3103 
Q 1469 3103 1208 2742 
Q 947 2381 947 1747 
z
" transform="scale(0.015625)"/>
        <path id="DejaVuSans-43" d="M 4122 4306 
L 4122 3641 
Q 3803 3938 3442 4084 
Q 3081 4231 2675 4231 
Q 1875 4231 1450 3742 
Q 1025 3253 1025 2328 
Q 1025 1406 1450 917 
Q 1875 428 2675 428 
Q 3081 428 3442 575 
Q 3803 722 4122 1019 
L 4122 359 
Q 3791 134 3420 21 
Q 3050 -91 2638 -91 
Q 1578 -91 968 557 
Q 359 1206 359 2328 
Q 359 3453 968 4101 
Q 1578 4750 2638 4750 
Q 3056 4750 3426 4639 
Q 3797 4528 4122 4306 
z
" transform="scale(0.015625)"/>
        <path id="DejaVuSans-6f" d="M 1959 3097 
Q 1497 3097 1228 2736 
Q 959 2375 959 1747 
Q 959 1119 1226 758 
Q 1494 397 1959 397 
Q 2419 397 2687 759 
Q 2956 1122 2956 1747 
Q 2956 2369 2687 2733 
Q 2419 3097 1959 3097 
z
M 1959 3584 
Q 2709 3584 3137 3096 
Q 3566 2609 3566 1747 
Q 3566 888 3137 398 
Q 2709 -91 1959 -91 
Q 1206 -91 779 398 
Q 353 888 353 1747 
Q 353 2609 779 3096 
Q 1206 3584 1959 3584 
z
" transform="scale(0.015625)"/>
        <path id="DejaVuSans-75" d="M 544 1381 
L 544 3500 
L 1119 3500 
L 1119 1403 
Q 1119 906 1312 657 
Q 1506 409 1894 409 
Q 2359 409 2629 706 
Q 2900 1003 2900 1516 
L 2900 3500 
L 3475 3500 
L 3475 0 
L 2900 0 
L 2900 538 
Q 2691 219 2414 64 
Q 2138 -91 1772 -91 
Q 1169 -91 856 284 
Q 544 659 544 1381 
z
M 1991 3584 
L 1991 3584 
z
" transform="scale(0.015625)"/>
        <path id="DejaVuSans-6d" d="M 3328 2828 
Q 3544 3216 3844 3400 
Q 4144 3584 4550 3584 
Q 5097 3584 5394 3201 
Q 5691 2819 5691 2113 
L 5691 0 
L 5113 0 
L 5113 2094 
Q 5113 2597 4934 2840 
Q 4756 3084 4391 3084 
Q 3944 3084 3684 2787 
Q 3425 2491 3425 1978 
L 3425 0 
L 2847 0 
L 2847 2094 
Q 2847 2600 2669 2842 
Q 2491 3084 2119 3084 
Q 1678 3084 1418 2786 
Q 1159 2488 1159 1978 
L 1159 0 
L 581 0 
L 581 3500 
L 1159 3500 
L 1159 2956 
Q 1356 3278 1631 3431 
Q 1906 3584 2284 3584 
Q 2666 3584 2933 3390 
Q 3200 3197 3328 2828 
z
" transform="scale(0.015625)"/>
       </defs>
       <use xlink:href="#DejaVuSans-49"/>
       <use xlink:href="#DejaVuSans-6e" transform="translate(29.492188 0)"/>
       <use xlink:href="#DejaVuSans-76" transform="translate(92.871094 0)"/>
       <use xlink:href="#DejaVuSans-65" transform="translate(152.050781 0)"/>
       <use xlink:href="#DejaVuSans-6e" transform="translate(213.574219 0)"/>
       <use xlink:href="#DejaVuSans-74" transform="translate(276.953125 0)"/>
       <use xlink:href="#DejaVuSans-65" transform="translate(316.162109 0)"/>
       <use xlink:href="#DejaVuSans-64" transform="translate(377.685547 0)"/>
       <use xlink:href="#DejaVuSans-20" transform="translate(441.162109 0)"/>
       <use xlink:href="#DejaVuSans-43" transform="translate(472.949219 0)"/>
       <use xlink:href="#DejaVuSans-6f" transform="translate(542.773438 0)"/>
       <use xlink:href="#DejaVuSans-6c" transform="translate(603.955078 0)"/>
       <use xlink:href="#DejaVuSans-75" transform="translate(631.738281 0)"/>
       <use xlink:href="#DejaVuSans-6d" transform="translate(695.117188 0)"/>
       <use xlink:href="#DejaVuSans-6e" transform="translate(792.529297 0)"/>
      </g>
     </g>
    </g>
    <g id="xtick_3">
     <g id="line2d_3">
      <g>
       <use xlink:href="#m33969cc312" x="138.021276" y="172.250726" style="fill: #7a7a7a; stroke: #7a7a7a; stroke-width: 0.5"/>
      </g>
     </g>
     <g id="text_3">
      <!-- GROUP BY result mismatch -->
      <g transform="translate(57.2041 226.769204) rotate(-28) scale(0.067 -0.067)">
       <defs>
        <path id="DejaVuSans-47" d="M 3809 666 
L 3809 1919 
L 2778 1919 
L 2778 2438 
L 4434 2438 
L 4434 434 
Q 4069 175 3628 42 
Q 3188 -91 2688 -91 
Q 1594 -91 976 548 
Q 359 1188 359 2328 
Q 359 3472 976 4111 
Q 1594 4750 2688 4750 
Q 3144 4750 3555 4637 
Q 3966 4525 4313 4306 
L 4313 3634 
Q 3963 3931 3569 4081 
Q 3175 4231 2741 4231 
Q 1884 4231 1454 3753 
Q 1025 3275 1025 2328 
Q 1025 1384 1454 906 
Q 1884 428 2741 428 
Q 3075 428 3337 486 
Q 3600 544 3809 666 
z
" transform="scale(0.015625)"/>
        <path id="DejaVuSans-52" d="M 2841 2188 
Q 3044 2119 3236 1894 
Q 3428 1669 3622 1275 
L 4263 0 
L 3584 0 
L 2988 1197 
Q 2756 1666 2539 1819 
Q 2322 1972 1947 1972 
L 1259 1972 
L 1259 0 
L 628 0 
L 628 4666 
L 2053 4666 
Q 2853 4666 3247 4331 
Q 3641 3997 3641 3322 
Q 3641 2881 3436 2590 
Q 3231 2300 2841 2188 
z
M 1259 4147 
L 1259 2491 
L 2053 2491 
Q 2509 2491 2742 2702 
Q 2975 2913 2975 3322 
Q 2975 3731 2742 3939 
Q 2509 4147 2053 4147 
L 1259 4147 
z
" transform="scale(0.015625)"/>
        <path id="DejaVuSans-4f" d="M 2522 4238 
Q 1834 4238 1429 3725 
Q 1025 3213 1025 2328 
Q 1025 1447 1429 934 
Q 1834 422 2522 422 
Q 3209 422 3611 934 
Q 4013 1447 4013 2328 
Q 4013 3213 3611 3725 
Q 3209 4238 2522 4238 
z
M 2522 4750 
Q 3503 4750 4090 4092 
Q 4678 3434 4678 2328 
Q 4678 1225 4090 567 
Q 3503 -91 2522 -91 
Q 1538 -91 948 565 
Q 359 1222 359 2328 
Q 359 3434 948 4092 
Q 1538 4750 2522 4750 
z
" transform="scale(0.015625)"/>
        <path id="DejaVuSans-55" d="M 556 4666 
L 1191 4666 
L 1191 1831 
Q 1191 1081 1462 751 
Q 1734 422 2344 422 
Q 2950 422 3222 751 
Q 3494 1081 3494 1831 
L 3494 4666 
L 4128 4666 
L 4128 1753 
Q 4128 841 3676 375 
Q 3225 -91 2344 -91 
Q 1459 -91 1007 375 
Q 556 841 556 1753 
L 556 4666 
z
" transform="scale(0.015625)"/>
        <path id="DejaVuSans-50" d="M 1259 4147 
L 1259 2394 
L 2053 2394 
Q 2494 2394 2734 2622 
Q 2975 2850 2975 3272 
Q 2975 3691 2734 3919 
Q 2494 4147 2053 4147 
L 1259 4147 
z
M 628 4666 
L 2053 4666 
Q 2838 4666 3239 4311 
Q 3641 3956 3641 3272 
Q 3641 2581 3239 2228 
Q 2838 1875 2053 1875 
L 1259 1875 
L 1259 0 
L 628 0 
L 628 4666 
z
" transform="scale(0.015625)"/>
        <path id="DejaVuSans-42" d="M 1259 2228 
L 1259 519 
L 2272 519 
Q 2781 519 3026 730 
Q 3272 941 3272 1375 
Q 3272 1813 3026 2020 
Q 2781 2228 2272 2228 
L 1259 2228 
z
M 1259 4147 
L 1259 2741 
L 2194 2741 
Q 2656 2741 2882 2914 
Q 3109 3088 3109 3444 
Q 3109 3797 2882 3972 
Q 2656 4147 2194 4147 
L 1259 4147 
z
M 628 4666 
L 2241 4666 
Q 2963 4666 3353 4366 
Q 3744 4066 3744 3513 
Q 3744 3084 3544 2831 
Q 3344 2578 2956 2516 
Q 3422 2416 3680 2098 
Q 3938 1781 3938 1306 
Q 3938 681 3513 340 
Q 3088 0 2303 0 
L 628 0 
L 628 4666 
z
" transform="scale(0.015625)"/>
        <path id="DejaVuSans-59" d="M -13 4666 
L 666 4666 
L 1959 2747 
L 3244 4666 
L 3922 4666 
L 2272 2222 
L 2272 0 
L 1638 0 
L 1638 2222 
L -13 4666 
z
" transform="scale(0.015625)"/>
        <path id="DejaVuSans-63" d="M 3122 3366 
L 3122 2828 
Q 2878 2963 2633 3030 
Q 2388 3097 2138 3097 
Q 1578 3097 1268 2742 
Q 959 2388 959 1747 
Q 959 1106 1268 751 
Q 1578 397 2138 397 
Q 2388 397 2633 464 
Q 2878 531 3122 666 
L 3122 134 
Q 2881 22 2623 -34 
Q 2366 -91 2075 -91 
Q 1284 -91 818 406 
Q 353 903 353 1747 
Q 353 2603 823 3093 
Q 1294 3584 2113 3584 
Q 2378 3584 2631 3529 
Q 2884 3475 3122 3366 
z
" transform="scale(0.015625)"/>
        <path id="DejaVuSans-68" d="M 3513 2113 
L 3513 0 
L 2938 0 
L 2938 2094 
Q 2938 2591 2744 2837 
Q 2550 3084 2163 3084 
Q 1697 3084 1428 2787 
Q 1159 2491 1159 1978 
L 1159 0 
L 581 0 
L 581 4863 
L 1159 4863 
L 1159 2956 
Q 1366 3272 1645 3428 
Q 1925 3584 2291 3584 
Q 2894 3584 3203 3211 
Q 3513 2838 3513 2113 
z
" transform="scale(0.015625)"/>
       </defs>
       <use xlink:href="#DejaVuSans-47"/>
       <use xlink:href="#DejaVuSans-52" transform="translate(77.490234 0)"/>
       <use xlink:href="#DejaVuSans-4f" transform="translate(146.972656 0)"/>
       <use xlink:href="#DejaVuSans-55" transform="translate(225.683594 0)"/>
       <use xlink:href="#DejaVuSans-50" transform="translate(298.876953 0)"/>
       <use xlink:href="#DejaVuSans-20" transform="translate(359.179688 0)"/>
       <use xlink:href="#DejaVuSans-42" transform="translate(390.966797 0)"/>
       <use xlink:href="#DejaVuSans-59" transform="translate(454.070312 0)"/>
       <use xlink:href="#DejaVuSans-20" transform="translate(515.154297 0)"/>
       <use xlink:href="#DejaVuSans-72" transform="translate(546.941406 0)"/>
       <use xlink:href="#DejaVuSans-65" transform="translate(585.804688 0)"/>
       <use xlink:href="#DejaVuSans-73" transform="translate(647.328125 0)"/>
       <use xlink:href="#DejaVuSans-75" transform="translate(699.427734 0)"/>
       <use xlink:href="#DejaVuSans-6c" transform="translate(762.806641 0)"/>
       <use xlink:href="#DejaVuSans-74" transform="translate(790.589844 0)"/>
       <use xlink:href="#DejaVuSans-20" transform="translate(829.798828 0)"/>
       <use xlink:href="#DejaVuSans-6d" transform="translate(861.585938 0)"/>
       <use xlink:href="#DejaVuSans-69" transform="translate(958.998047 0)"/>
       <use xlink:href="#DejaVuSans-73" transform="translate(986.78125 0)"/>
       <use xlink:href="#DejaVuSans-6d" transform="translate(1038.880859 0)"/>
       <use xlink:href="#DejaVuSans-61" transform="translate(1136.292969 0)"/>
       <use xlink:href="#DejaVuSans-74" transform="translate(1197.572266 0)"/>
       <use xlink:href="#DejaVuSans-63" transform="translate(1236.78125 0)"/>
       <use xlink:href="#DejaVuSans-68" transform="translate(1291.761719 0)"/>
      </g>
     </g>
    </g>
    <g id="xtick_4">
     <g id="line2d_4">
      <g>
       <use xlink:href="#m33969cc312" x="173.214104" y="172.250726" style="fill: #7a7a7a; stroke: #7a7a7a; stroke-width: 0.5"/>
      </g>
     </g>
     <g id="text_4">
      <!-- Wrong Aggregate -->
      <g transform="translate(120.83689 211.647407) rotate(-28) scale(0.067 -0.067)">
       <defs>
        <path id="DejaVuSans-57" d="M 213 4666 
L 850 4666 
L 1831 722 
L 2809 4666 
L 3519 4666 
L 4500 722 
L 5478 4666 
L 6119 4666 
L 4947 0 
L 4153 0 
L 3169 4050 
L 2175 0 
L 1381 0 
L 213 4666 
z
" transform="scale(0.015625)"/>
       </defs>
       <use xlink:href="#DejaVuSans-57"/>
       <use xlink:href="#DejaVuSans-72" transform="translate(94.376953 0)"/>
       <use xlink:href="#DejaVuSans-6f" transform="translate(133.240234 0)"/>
       <use xlink:href="#DejaVuSans-6e" transform="translate(194.421875 0)"/>
       <use xlink:href="#DejaVuSans-67" transform="translate(257.800781 0)"/>
       <use xlink:href="#DejaVuSans-20" transform="translate(321.277344 0)"/>
       <use xlink:href="#DejaVuSans-41" transform="translate(353.064453 0)"/>
       <use xlink:href="#DejaVuSans-67" transform="translate(421.472656 0)"/>
       <use xlink:href="#DejaVuSans-67" transform="translate(484.949219 0)"/>
       <use xlink:href="#DejaVuSans-72" transform="translate(548.425781 0)"/>
       <use xlink:href="#DejaVuSans-65" transform="translate(587.289062 0)"/>
       <use xlink:href="#DejaVuSans-67" transform="translate(648.8125 0)"/>
       <use xlink:href="#DejaVuSans-61" transform="translate(712.289062 0)"/>
       <use xlink:href="#DejaVuSans-74" transform="translate(773.568359 0)"/>
       <use xlink:href="#DejaVuSans-65" transform="translate(812.777344 0)"/>
      </g>
     </g>
    </g>
    <g id="xtick_5">
     <g id="line2d_5">
      <g>
       <use xlink:href="#m33969cc312" x="208.406932" y="172.250726" style="fill: #7a7a7a; stroke: #7a7a7a; stroke-width: 0.5"/>
      </g>
     </g>
     <g id="text_5">
      <!-- LIMIT Clause -->
      <g transform="translate(170.498346 203.954302) rotate(-28) scale(0.067 -0.067)">
       <defs>
        <path id="DejaVuSans-4c" d="M 628 4666 
L 1259 4666 
L 1259 531 
L 3531 531 
L 3531 0 
L 628 0 
L 628 4666 
z
" transform="scale(0.015625)"/>
        <path id="DejaVuSans-4d" d="M 628 4666 
L 1569 4666 
L 2759 1491 
L 3956 4666 
L 4897 4666 
L 4897 0 
L 4281 0 
L 4281 4097 
L 3078 897 
L 2444 897 
L 1241 4097 
L 1241 0 
L 628 0 
L 628 4666 
z
" transform="scale(0.015625)"/>
        <path id="DejaVuSans-54" d="M -19 4666 
L 3928 4666 
L 3928 4134 
L 2272 4134 
L 2272 0 
L 1638 0 
L 1638 4134 
L -19 4134 
L -19 4666 
z
" transform="scale(0.015625)"/>
       </defs>
       <use xlink:href="#DejaVuSans-4c"/>
       <use xlink:href="#DejaVuSans-49" transform="translate(55.712891 0)"/>
       <use xlink:href="#DejaVuSans-4d" transform="translate(85.205078 0)"/>
       <use xlink:href="#DejaVuSans-49" transform="translate(171.484375 0)"/>
       <use xlink:href="#DejaVuSans-54" transform="translate(200.976562 0)"/>
       <use xlink:href="#DejaVuSans-20" transform="translate(262.060547 0)"/>
       <use xlink:href="#DejaVuSans-43" transform="translate(293.847656 0)"/>
       <use xlink:href="#DejaVuSans-6c" transform="translate(363.671875 0)"/>
       <use xlink:href="#DejaVuSans-61" transform="translate(391.455078 0)"/>
       <use xlink:href="#DejaVuSans-75" transform="translate(452.734375 0)"/>
       <use xlink:href="#DejaVuSans-73" transform="translate(516.113281 0)"/>
       <use xlink:href="#DejaVuSans-65" transform="translate(568.212891 0)"/>
      </g>
     </g>
    </g>
    <g id="xtick_6">
     <g id="line2d_6">
      <g>
       <use xlink:href="#m33969cc312" x="243.59976" y="172.250726" style="fill: #7a7a7a; stroke: #7a7a7a; stroke-width: 0.5"/>
      </g>
     </g>
     <g id="text_6">
      <!-- WHERE Clause -->
      <g transform="translate(199.310484 207.346975) rotate(-28) scale(0.067 -0.067)">
       <defs>
        <path id="DejaVuSans-48" d="M 628 4666 
L 1259 4666 
L 1259 2753 
L 3553 2753 
L 3553 4666 
L 4184 4666 
L 4184 0 
L 3553 0 
L 3553 2222 
L 1259 2222 
L 1259 0 
L 628 0 
L 628 4666 
z
" transform="scale(0.015625)"/>
        <path id="DejaVuSans-45" d="M 628 4666 
L 3578 4666 
L 3578 4134 
L 1259 4134 
L 1259 2753 
L 3481 2753 
L 3481 2222 
L 1259 2222 
L 1259 531 
L 3634 531 
L 3634 0 
L 628 0 
L 628 4666 
z
" transform="scale(0.015625)"/>
       </defs>
       <use xlink:href="#DejaVuSans-57"/>
       <use xlink:href="#DejaVuSans-48" transform="translate(98.876953 0)"/>
       <use xlink:href="#DejaVuSans-45" transform="translate(174.072266 0)"/>
       <use xlink:href="#DejaVuSans-52" transform="translate(237.255859 0)"/>
       <use xlink:href="#DejaVuSans-45" transform="translate(306.738281 0)"/>
       <use xlink:href="#DejaVuSans-20" transform="translate(369.921875 0)"/>
       <use xlink:href="#DejaVuSans-43" transform="translate(401.708984 0)"/>
       <use xlink:href="#DejaVuSans-6c" transform="translate(471.533203 0)"/>
       <use xlink:href="#DejaVuSans-61" transform="translate(499.316406 0)"/>
       <use xlink:href="#DejaVuSans-75" transform="translate(560.595703 0)"/>
       <use xlink:href="#DejaVuSans-73" transform="translate(623.974609 0)"/>
       <use xlink:href="#DejaVuSans-65" transform="translate(676.074219 0)"/>
      </g>
     </g>
    </g>
    <g id="xtick_7">
     <g id="line2d_7">
      <g>
       <use xlink:href="#m33969cc312" x="278.792588" y="172.250726" style="fill: #7a7a7a; stroke: #7a7a7a; stroke-width: 0.5"/>
      </g>
     </g>
     <g id="text_7">
      <!-- ORDER BY -->
      <g transform="translate(247.740725 200.308518) rotate(-28) scale(0.067 -0.067)">
       <defs>
        <path id="DejaVuSans-44" d="M 1259 4147 
L 1259 519 
L 2022 519 
Q 2988 519 3436 956 
Q 3884 1394 3884 2338 
Q 3884 3275 3436 3711 
Q 2988 4147 2022 4147 
L 1259 4147 
z
M 628 4666 
L 1925 4666 
Q 3281 4666 3915 4102 
Q 4550 3538 4550 2338 
Q 4550 1131 3912 565 
Q 3275 0 1925 0 
L 628 0 
L 628 4666 
z
" transform="scale(0.015625)"/>
       </defs>
       <use xlink:href="#DejaVuSans-4f"/>
       <use xlink:href="#DejaVuSans-52" transform="translate(78.710938 0)"/>
       <use xlink:href="#DejaVuSans-44" transform="translate(148.193359 0)"/>
       <use xlink:href="#DejaVuSans-45" transform="translate(225.195312 0)"/>
       <use xlink:href="#DejaVuSans-52" transform="translate(288.378906 0)"/>
       <use xlink:href="#DejaVuSans-20" transform="translate(357.861328 0)"/>
       <use xlink:href="#DejaVuSans-42" transform="translate(389.648438 0)"/>
       <use xlink:href="#DejaVuSans-59" transform="translate(452.751953 0)"/>
      </g>
     </g>
    </g>
    <g id="xtick_8">
     <g id="line2d_8">
      <g>
       <use xlink:href="#m33969cc312" x="313.985416" y="172.250726" style="fill: #7a7a7a; stroke: #7a7a7a; stroke-width: 0.5"/>
      </g>
     </g>
     <g id="text_8">
      <!-- Aggregate Result -->
      <g transform="translate(262.336579 211.260123) rotate(-28) scale(0.067 -0.067)">
       <use xlink:href="#DejaVuSans-41"/>
       <use xlink:href="#DejaVuSans-67" transform="translate(68.408203 0)"/>
       <use xlink:href="#DejaVuSans-67" transform="translate(131.884766 0)"/>
       <use xlink:href="#DejaVuSans-72" transform="translate(195.361328 0)"/>
       <use xlink:href="#DejaVuSans-65" transform="translate(234.224609 0)"/>
       <use xlink:href="#DejaVuSans-67" transform="translate(295.748047 0)"/>
       <use xlink:href="#DejaVuSans-61" transform="translate(359.224609 0)"/>
       <use xlink:href="#DejaVuSans-74" transform="translate(420.503906 0)"/>
       <use xlink:href="#DejaVuSans-65" transform="translate(459.712891 0)"/>
       <use xlink:href="#DejaVuSans-20" transform="translate(521.236328 0)"/>
       <use xlink:href="#DejaVuSans-52" transform="translate(553.023438 0)"/>
       <use xlink:href="#DejaVuSans-65" transform="translate(618.005859 0)"/>
       <use xlink:href="#DejaVuSans-73" transform="translate(679.529297 0)"/>
       <use xlink:href="#DejaVuSans-75" transform="translate(731.628906 0)"/>
       <use xlink:href="#DejaVuSans-6c" transform="translate(795.007812 0)"/>
       <use xlink:href="#DejaVuSans-74" transform="translate(822.791016 0)"/>
      </g>
     </g>
    </g>
    <g id="xtick_9">
     <g id="line2d_9">
      <g>
       <use xlink:href="#m33969cc312" x="349.178244" y="172.250726" style="fill: #7a7a7a; stroke: #7a7a7a; stroke-width: 0.5"/>
      </g>
     </g>
     <g id="text_9">
      <!-- DISTINCT -->
      <g transform="translate(320.940059 198.812458) rotate(-28) scale(0.067 -0.067)">
       <defs>
        <path id="DejaVuSans-53" d="M 3425 4513 
L 3425 3897 
Q 3066 4069 2747 4153 
Q 2428 4238 2131 4238 
Q 1616 4238 1336 4038 
Q 1056 3838 1056 3469 
Q 1056 3159 1242 3001 
Q 1428 2844 1947 2747 
L 2328 2669 
Q 3034 2534 3370 2195 
Q 3706 1856 3706 1288 
Q 3706 609 3251 259 
Q 2797 -91 1919 -91 
Q 1588 -91 1214 -16 
Q 841 59 441 206 
L 441 856 
Q 825 641 1194 531 
Q 1563 422 1919 422 
Q 2459 422 2753 634 
Q 3047 847 3047 1241 
Q 3047 1584 2836 1778 
Q 2625 1972 2144 2069 
L 1759 2144 
Q 1053 2284 737 2584 
Q 422 2884 422 3419 
Q 422 4038 858 4394 
Q 1294 4750 2059 4750 
Q 2388 4750 2728 4690 
Q 3069 4631 3425 4513 
z
" transform="scale(0.015625)"/>
        <path id="DejaVuSans-4e" d="M 628 4666 
L 1478 4666 
L 3547 763 
L 3547 4666 
L 4159 4666 
L 4159 0 
L 3309 0 
L 1241 3903 
L 1241 0 
L 628 0 
L 628 4666 
z
" transform="scale(0.015625)"/>
       </defs>
       <use xlink:href="#DejaVuSans-44"/>
       <use xlink:href="#DejaVuSans-49" transform="translate(77.001953 0)"/>
       <use xlink:href="#DejaVuSans-53" transform="translate(106.494141 0)"/>
       <use xlink:href="#DejaVuSans-54" transform="translate(169.970703 0)"/>
       <use xlink:href="#DejaVuSans-49" transform="translate(231.054688 0)"/>
       <use xlink:href="#DejaVuSans-4e" transform="translate(260.546875 0)"/>
       <use xlink:href="#DejaVuSans-43" transform="translate(335.351562 0)"/>
       <use xlink:href="#DejaVuSans-54" transform="translate(405.175781 0)"/>
      </g>
     </g>
    </g>
    <g id="xtick_10">
     <g id="line2d_10">
      <g>
       <use xlink:href="#m33969cc312" x="384.371072" y="172.250726" style="fill: #7a7a7a; stroke: #7a7a7a; stroke-width: 0.5"/>
      </g>
     </g>
     <g id="text_10">
      <!-- JOIN Result -->
      <g transform="translate(350.986186 201.549008) rotate(-28) scale(0.067 -0.067)">
       <defs>
        <path id="DejaVuSans-4a" d="M 628 4666 
L 1259 4666 
L 1259 325 
Q 1259 -519 939 -900 
Q 619 -1281 -91 -1281 
L -331 -1281 
L -331 -750 
L -134 -750 
Q 284 -750 456 -515 
Q 628 -281 628 325 
L 628 4666 
z
" transform="scale(0.015625)"/>
       </defs>
       <use xlink:href="#DejaVuSans-4a"/>
       <use xlink:href="#DejaVuSans-4f" transform="translate(29.492188 0)"/>
       <use xlink:href="#DejaVuSans-49" transform="translate(108.203125 0)"/>
       <use xlink:href="#DejaVuSans-4e" transform="translate(137.695312 0)"/>
       <use xlink:href="#DejaVuSans-20" transform="translate(212.5 0)"/>
       <use xlink:href="#DejaVuSans-52" transform="translate(244.287109 0)"/>
       <use xlink:href="#DejaVuSans-65" transform="translate(309.269531 0)"/>
       <use xlink:href="#DejaVuSans-73" transform="translate(370.792969 0)"/>
       <use xlink:href="#DejaVuSans-75" transform="translate(422.892578 0)"/>
       <use xlink:href="#DejaVuSans-6c" transform="translate(486.271484 0)"/>
       <use xlink:href="#DejaVuSans-74" transform="translate(514.054688 0)"/>
      </g>
     </g>
    </g>
    <g id="xtick_11">
     <g id="line2d_11">
      <g>
       <use xlink:href="#m33969cc312" x="419.5639" y="172.250726" style="fill: #7a7a7a; stroke: #7a7a7a; stroke-width: 0.5"/>
      </g>
     </g>
     <g id="text_11">
      <!-- Others -->
      <g transform="translate(399.030978 194.715497) rotate(-28) scale(0.067 -0.067)">
       <use xlink:href="#DejaVuSans-4f"/>
       <use xlink:href="#DejaVuSans-74" transform="translate(78.710938 0)"/>
       <use xlink:href="#DejaVuSans-68" transform="translate(117.919922 0)"/>
       <use xlink:href="#DejaVuSans-65" transform="translate(181.298828 0)"/>
       <use xlink:href="#DejaVuSans-72" transform="translate(242.822266 0)"/>
       <use xlink:href="#DejaVuSans-73" transform="translate(283.935547 0)"/>
      </g>
     </g>
    </g>
   </g>
   <g id="matplotlib.axis_2">
    <g id="ytick_1">
     <g id="line2d_12">
      <path d="M 44.760281 172.250726 
L 442.439239 172.250726 
" clip-path="url(#pa0e8b1aa15)" style="fill: none; stroke: #e8e8e8; stroke-width: 0.5; stroke-linecap: square"/>
     </g>
     <g id="line2d_13">
      <defs>
       <path id="mb028a7c671" d="M 0 0 
L -3.4 0 
" style="stroke: #7a7a7a; stroke-width: 0.5"/>
      </defs>
      <g>
       <use xlink:href="#mb028a7c671" x="44.760281" y="172.250726" style="fill: #7a7a7a; stroke: #7a7a7a; stroke-width: 0.5"/>
      </g>
     </g>
     <g id="text_12">
      <!-- 0 -->
      <g transform="translate(32.715656 175.024156) scale(0.073 -0.073)">
       <defs>
        <path id="DejaVuSans-30" d="M 2034 4250 
Q 1547 4250 1301 3770 
Q 1056 3291 1056 2328 
Q 1056 1369 1301 889 
Q 1547 409 2034 409 
Q 2525 409 2770 889 
Q 3016 1369 3016 2328 
Q 3016 3291 2770 3770 
Q 2525 4250 2034 4250 
z
M 2034 4750 
Q 2819 4750 3233 4129 
Q 3647 3509 3647 2328 
Q 3647 1150 3233 529 
Q 2819 -91 2034 -91 
Q 1250 -91 836 529 
Q 422 1150 422 2328 
Q 422 3509 836 4129 
Q 1250 4750 2034 4750 
z
" transform="scale(0.015625)"/>
       </defs>
       <use xlink:href="#DejaVuSans-30"/>
      </g>
     </g>
    </g>
    <g id="ytick_2">
     <g id="line2d_14">
      <path d="M 44.760281 152.943888 
L 442.439239 152.943888 
" clip-path="url(#pa0e8b1aa15)" style="fill: none; stroke: #e8e8e8; stroke-width: 0.5; stroke-linecap: square"/>
     </g>
     <g id="line2d_15">
      <g>
       <use xlink:href="#mb028a7c671" x="44.760281" y="152.943888" style="fill: #7a7a7a; stroke: #7a7a7a; stroke-width: 0.5"/>
      </g>
     </g>
     <g id="text_13">
      <!-- 100 -->
      <g transform="translate(23.426406 155.717318) scale(0.073 -0.073)">
       <defs>
        <path id="DejaVuSans-31" d="M 794 531 
L 1825 531 
L 1825 4091 
L 703 3866 
L 703 4441 
L 1819 4666 
L 2450 4666 
L 2450 531 
L 3481 531 
L 3481 0 
L 794 0 
L 794 531 
z
" transform="scale(0.015625)"/>
       </defs>
       <use xlink:href="#DejaVuSans-31"/>
       <use xlink:href="#DejaVuSans-30" transform="translate(63.623047 0)"/>
       <use xlink:href="#DejaVuSans-30" transform="translate(127.246094 0)"/>
      </g>
     </g>
    </g>
    <g id="ytick_3">
     <g id="line2d_16">
      <path d="M 44.760281 133.63705 
L 442.439239 133.63705 
" clip-path="url(#pa0e8b1aa15)" style="fill: none; stroke: #e8e8e8; stroke-width: 0.5; stroke-linecap: square"/>
     </g>
     <g id="line2d_17">
      <g>
       <use xlink:href="#mb028a7c671" x="44.760281" y="133.63705" style="fill: #7a7a7a; stroke: #7a7a7a; stroke-width: 0.5"/>
      </g>
     </g>
     <g id="text_14">
      <!-- 200 -->
      <g transform="translate(23.426406 136.41048) scale(0.073 -0.073)">
       <defs>
        <path id="DejaVuSans-32" d="M 1228 531 
L 3431 531 
L 3431 0 
L 469 0 
L 469 531 
Q 828 903 1448 1529 
Q 2069 2156 2228 2338 
Q 2531 2678 2651 2914 
Q 2772 3150 2772 3378 
Q 2772 3750 2511 3984 
Q 2250 4219 1831 4219 
Q 1534 4219 1204 4116 
Q 875 4013 500 3803 
L 500 4441 
Q 881 4594 1212 4672 
Q 1544 4750 1819 4750 
Q 2544 4750 2975 4387 
Q 3406 4025 3406 3419 
Q 3406 3131 3298 2873 
Q 3191 2616 2906 2266 
Q 2828 2175 2409 1742 
Q 1991 1309 1228 531 
z
" transform="scale(0.015625)"/>
       </defs>
       <use xlink:href="#DejaVuSans-32"/>
       <use xlink:href="#DejaVuSans-30" transform="translate(63.623047 0)"/>
       <use xlink:href="#DejaVuSans-30" transform="translate(127.246094 0)"/>
      </g>
     </g>
    </g>
    <g id="ytick_4">
     <g id="line2d_18">
      <path d="M 44.760281 114.330212 
L 442.439239 114.330212 
" clip-path="url(#pa0e8b1aa15)" style="fill: none; stroke: #e8e8e8; stroke-width: 0.5; stroke-linecap: square"/>
     </g>
     <g id="line2d_19">
      <g>
       <use xlink:href="#mb028a7c671" x="44.760281" y="114.330212" style="fill: #7a7a7a; stroke: #7a7a7a; stroke-width: 0.5"/>
      </g>
     </g>
     <g id="text_15">
      <!-- 300 -->
      <g transform="translate(23.426406 117.103642) scale(0.073 -0.073)">
       <defs>
        <path id="DejaVuSans-33" d="M 2597 2516 
Q 3050 2419 3304 2112 
Q 3559 1806 3559 1356 
Q 3559 666 3084 287 
Q 2609 -91 1734 -91 
Q 1441 -91 1130 -33 
Q 819 25 488 141 
L 488 750 
Q 750 597 1062 519 
Q 1375 441 1716 441 
Q 2309 441 2620 675 
Q 2931 909 2931 1356 
Q 2931 1769 2642 2001 
Q 2353 2234 1838 2234 
L 1294 2234 
L 1294 2753 
L 1863 2753 
Q 2328 2753 2575 2939 
Q 2822 3125 2822 3475 
Q 2822 3834 2567 4026 
Q 2313 4219 1838 4219 
Q 1578 4219 1281 4162 
Q 984 4106 628 3988 
L 628 4550 
Q 988 4650 1302 4700 
Q 1616 4750 1894 4750 
Q 2613 4750 3031 4423 
Q 3450 4097 3450 3541 
Q 3450 3153 3228 2886 
Q 3006 2619 2597 2516 
z
" transform="scale(0.015625)"/>
       </defs>
       <use xlink:href="#DejaVuSans-33"/>
       <use xlink:href="#DejaVuSans-30" transform="translate(63.623047 0)"/>
       <use xlink:href="#DejaVuSans-30" transform="translate(127.246094 0)"/>
      </g>
     </g>
    </g>
    <g id="ytick_5">
     <g id="line2d_20">
      <path d="M 44.760281 95.023375 
L 442.439239 95.023375 
" clip-path="url(#pa0e8b1aa15)" style="fill: none; stroke: #e8e8e8; stroke-width: 0.5; stroke-linecap: square"/>
     </g>
     <g id="line2d_21">
      <g>
       <use xlink:href="#mb028a7c671" x="44.760281" y="95.023375" style="fill: #7a7a7a; stroke: #7a7a7a; stroke-width: 0.5"/>
      </g>
     </g>
     <g id="text_16">
      <!-- 400 -->
      <g transform="translate(23.426406 97.796804) scale(0.073 -0.073)">
       <defs>
        <path id="DejaVuSans-34" d="M 2419 4116 
L 825 1625 
L 2419 1625 
L 2419 4116 
z
M 2253 4666 
L 3047 4666 
L 3047 1625 
L 3713 1625 
L 3713 1100 
L 3047 1100 
L 3047 0 
L 2419 0 
L 2419 1100 
L 313 1100 
L 313 1709 
L 2253 4666 
z
" transform="scale(0.015625)"/>
       </defs>
       <use xlink:href="#DejaVuSans-34"/>
       <use xlink:href="#DejaVuSans-30" transform="translate(63.623047 0)"/>
       <use xlink:href="#DejaVuSans-30" transform="translate(127.246094 0)"/>
      </g>
     </g>
    </g>
    <g id="ytick_6">
     <g id="line2d_22">
      <path d="M 44.760281 75.716537 
L 442.439239 75.716537 
" clip-path="url(#pa0e8b1aa15)" style="fill: none; stroke: #e8e8e8; stroke-width: 0.5; stroke-linecap: square"/>
     </g>
     <g id="line2d_23">
      <g>
       <use xlink:href="#mb028a7c671" x="44.760281" y="75.716537" style="fill: #7a7a7a; stroke: #7a7a7a; stroke-width: 0.5"/>
      </g>
     </g>
     <g id="text_17">
      <!-- 500 -->
      <g transform="translate(23.426406 78.489966) scale(0.073 -0.073)">
       <defs>
        <path id="DejaVuSans-35" d="M 691 4666 
L 3169 4666 
L 3169 4134 
L 1269 4134 
L 1269 2991 
Q 1406 3038 1543 3061 
Q 1681 3084 1819 3084 
Q 2600 3084 3056 2656 
Q 3513 2228 3513 1497 
Q 3513 744 3044 326 
Q 2575 -91 1722 -91 
Q 1428 -91 1123 -41 
Q 819 9 494 109 
L 494 744 
Q 775 591 1075 516 
Q 1375 441 1709 441 
Q 2250 441 2565 725 
Q 2881 1009 2881 1497 
Q 2881 1984 2565 2268 
Q 2250 2553 1709 2553 
Q 1456 2553 1204 2497 
Q 953 2441 691 2322 
L 691 4666 
z
" transform="scale(0.015625)"/>
       </defs>
       <use xlink:href="#DejaVuSans-35"/>
       <use xlink:href="#DejaVuSans-30" transform="translate(63.623047 0)"/>
       <use xlink:href="#DejaVuSans-30" transform="translate(127.246094 0)"/>
      </g>
     </g>
    </g>
    <g id="ytick_7">
     <g id="line2d_24">
      <path d="M 44.760281 56.409699 
L 442.439239 56.409699 
" clip-path="url(#pa0e8b1aa15)" style="fill: none; stroke: #e8e8e8; stroke-width: 0.5; stroke-linecap: square"/>
     </g>
     <g id="line2d_25">
      <g>
       <use xlink:href="#mb028a7c671" x="44.760281" y="56.409699" style="fill: #7a7a7a; stroke: #7a7a7a; stroke-width: 0.5"/>
      </g>
     </g>
     <g id="text_18">
      <!-- 600 -->
      <g transform="translate(23.426406 59.183129) scale(0.073 -0.073)">
       <defs>
        <path id="DejaVuSans-36" d="M 2113 2584 
Q 1688 2584 1439 2293 
Q 1191 2003 1191 1497 
Q 1191 994 1439 701 
Q 1688 409 2113 409 
Q 2538 409 2786 701 
Q 3034 994 3034 1497 
Q 3034 2003 2786 2293 
Q 2538 2584 2113 2584 
z
M 3366 4563 
L 3366 3988 
Q 3128 4100 2886 4159 
Q 2644 4219 2406 4219 
Q 1781 4219 1451 3797 
Q 1122 3375 1075 2522 
Q 1259 2794 1537 2939 
Q 1816 3084 2150 3084 
Q 2853 3084 3261 2657 
Q 3669 2231 3669 1497 
Q 3669 778 3244 343 
Q 2819 -91 2113 -91 
Q 1303 -91 875 529 
Q 447 1150 447 2328 
Q 447 3434 972 4092 
Q 1497 4750 2381 4750 
Q 2619 4750 2861 4703 
Q 3103 4656 3366 4563 
z
" transform="scale(0.015625)"/>
       </defs>
       <use xlink:href="#DejaVuSans-36"/>
       <use xlink:href="#DejaVuSans-30" transform="translate(63.623047 0)"/>
       <use xlink:href="#DejaVuSans-30" transform="translate(127.246094 0)"/>
      </g>
     </g>
    </g>
    <g id="ytick_8">
     <g id="line2d_26">
      <path d="M 44.760281 37.102861 
L 442.439239 37.102861 
" clip-path="url(#pa0e8b1aa15)" style="fill: none; stroke: #e8e8e8; stroke-width: 0.5; stroke-linecap: square"/>
     </g>
     <g id="line2d_27">
      <g>
       <use xlink:href="#mb028a7c671" x="44.760281" y="37.102861" style="fill: #7a7a7a; stroke: #7a7a7a; stroke-width: 0.5"/>
      </g>
     </g>
     <g id="text_19">
      <!-- 700 -->
      <g transform="translate(23.426406 39.876291) scale(0.073 -0.073)">
       <defs>
        <path id="DejaVuSans-37" d="M 525 4666 
L 3525 4666 
L 3525 4397 
L 1831 0 
L 1172 0 
L 2766 4134 
L 525 4134 
L 525 4666 
z
" transform="scale(0.015625)"/>
       </defs>
       <use xlink:href="#DejaVuSans-37"/>
       <use xlink:href="#DejaVuSans-30" transform="translate(63.623047 0)"/>
       <use xlink:href="#DejaVuSans-30" transform="translate(127.246094 0)"/>
      </g>
     </g>
    </g>
    <g id="ytick_9">
     <g id="line2d_28">
      <path d="M 44.760281 17.796023 
L 442.439239 17.796023 
" clip-path="url(#pa0e8b1aa15)" style="fill: none; stroke: #e8e8e8; stroke-width: 0.5; stroke-linecap: square"/>
     </g>
     <g id="line2d_29">
      <g>
       <use xlink:href="#mb028a7c671" x="44.760281" y="17.796023" style="fill: #7a7a7a; stroke: #7a7a7a; stroke-width: 0.5"/>
      </g>
     </g>
     <g id="text_20">
      <!-- 800 -->
      <g transform="translate(23.426406 20.569453) scale(0.073 -0.073)">
       <defs>
        <path id="DejaVuSans-38" d="M 2034 2216 
Q 1584 2216 1326 1975 
Q 1069 1734 1069 1313 
Q 1069 891 1326 650 
Q 1584 409 2034 409 
Q 2484 409 2743 651 
Q 3003 894 3003 1313 
Q 3003 1734 2745 1975 
Q 2488 2216 2034 2216 
z
M 1403 2484 
Q 997 2584 770 2862 
Q 544 3141 544 3541 
Q 544 4100 942 4425 
Q 1341 4750 2034 4750 
Q 2731 4750 3128 4425 
Q 3525 4100 3525 3541 
Q 3525 3141 3298 2862 
Q 3072 2584 2669 2484 
Q 3125 2378 3379 2068 
Q 3634 1759 3634 1313 
Q 3634 634 3220 271 
Q 2806 -91 2034 -91 
Q 1263 -91 848 271 
Q 434 634 434 1313 
Q 434 1759 690 2068 
Q 947 2378 1403 2484 
z
M 1172 3481 
Q 1172 3119 1398 2916 
Q 1625 2713 2034 2713 
Q 2441 2713 2670 2916 
Q 2900 3119 2900 3481 
Q 2900 3844 2670 4047 
Q 2441 4250 2034 4250 
Q 1625 4250 1398 4047 
Q 1172 3844 1172 3481 
z
" transform="scale(0.015625)"/>
       </defs>
       <use xlink:href="#DejaVuSans-38"/>
       <use xlink:href="#DejaVuSans-30" transform="translate(63.623047 0)"/>
       <use xlink:href="#DejaVuSans-30" transform="translate(127.246094 0)"/>
      </g>
     </g>
    </g>
    <g id="text_21">
     <!-- Failure count -->
     <g transform="translate(13.658672 117.900525) rotate(-90) scale(0.085 -0.085)">
      <defs>
       <path id="DejaVuSans-46" d="M 628 4666 
L 3309 4666 
L 3309 4134 
L 1259 4134 
L 1259 2759 
L 3109 2759 
L 3109 2228 
L 1259 2228 
L 1259 0 
L 628 0 
L 628 4666 
z
" transform="scale(0.015625)"/>
      </defs>
      <use xlink:href="#DejaVuSans-46"/>
      <use xlink:href="#DejaVuSans-61" transform="translate(48.394531 0)"/>
      <use xlink:href="#DejaVuSans-69" transform="translate(109.673828 0)"/>
      <use xlink:href="#DejaVuSans-6c" transform="translate(137.457031 0)"/>
      <use xlink:href="#DejaVuSans-75" transform="translate(165.240234 0)"/>
      <use xlink:href="#DejaVuSans-72" transform="translate(228.619141 0)"/>
      <use xlink:href="#DejaVuSans-65" transform="translate(267.482422 0)"/>
      <use xlink:href="#DejaVuSans-20" transform="translate(329.005859 0)"/>
      <use xlink:href="#DejaVuSans-63" transform="translate(360.792969 0)"/>
      <use xlink:href="#DejaVuSans-6f" transform="translate(415.773438 0)"/>
      <use xlink:href="#DejaVuSans-75" transform="translate(476.955078 0)"/>
      <use xlink:href="#DejaVuSans-6e" transform="translate(540.333984 0)"/>
      <use xlink:href="#DejaVuSans-74" transform="translate(603.712891 0)"/>
     </g>
    </g>
   </g>
   <g id="patch_3">
    <path d="M 60.202894 172.250726 
L 75.068345 172.250726 
Q 79.249253 172.250726 79.249253 172.227789 
L 79.249253 33.843635 
Q 79.249253 33.820699 75.068345 33.820699 
L 60.202894 33.820699 
Q 56.021986 33.820699 56.021986 33.843635 
L 56.021986 172.227789 
Q 56.021986 172.250726 60.202894 172.250726 
z
" clip-path="url(#pa0e8b1aa15)" style="fill: #e15759"/>
   </g>
   <g id="patch_4">
    <path d="M 95.395722 172.250726 
L 110.261173 172.250726 
Q 114.442081 172.250726 114.442081 172.227789 
L 114.442081 84.42755 
Q 114.442081 84.404614 110.261173 84.404614 
L 95.395722 84.404614 
Q 91.214814 84.404614 91.214814 84.42755 
L 91.214814 172.227789 
Q 91.214814 172.250726 95.395722 172.250726 
z
" clip-path="url(#pa0e8b1aa15)" style="fill: #e15759"/>
   </g>
   <g id="patch_5">
    <path d="M 130.58855 172.250726 
L 145.454001 172.250726 
Q 149.634909 172.250726 149.634909 172.227789 
L 149.634909 132.887713 
Q 149.634909 132.864777 145.454001 132.864777 
L 130.58855 132.864777 
Q 126.407642 132.864777 126.407642 132.887713 
L 126.407642 172.227789 
Q 126.407642 172.250726 130.58855 172.250726 
z
" clip-path="url(#pa0e8b1aa15)" style="fill: #e15759"/>
   </g>
   <g id="patch_6">
    <path d="M 165.781379 172.250726 
L 180.646829 172.250726 
Q 184.827737 172.250726 184.827737 172.227789 
L 184.827737 144.278748 
Q 184.827737 144.255811 180.646829 144.255811 
L 165.781379 144.255811 
Q 161.600471 144.255811 161.600471 144.278748 
L 161.600471 172.227789 
Q 161.600471 172.250726 165.781379 172.250726 
z
" clip-path="url(#pa0e8b1aa15)" style="fill: #b7b7b7"/>
   </g>
   <g id="patch_7">
    <path d="M 200.974207 172.250726 
L 215.839657 172.250726 
Q 220.020565 172.250726 220.020565 172.227789 
L 220.020565 145.244089 
Q 220.020565 145.221153 215.839657 145.221153 
L 200.974207 145.221153 
Q 196.793299 145.221153 196.793299 145.244089 
L 196.793299 172.227789 
Q 196.793299 172.250726 200.974207 172.250726 
z
" clip-path="url(#pa0e8b1aa15)" style="fill: #b7b7b7"/>
   </g>
   <g id="patch_8">
    <path d="M 236.167035 172.250726 
L 251.032485 172.250726 
Q 255.213393 172.250726 255.213393 172.227789 
L 255.213393 146.4025 
Q 255.213393 146.379563 251.032485 146.379563 
L 236.167035 146.379563 
Q 231.986127 146.379563 231.986127 146.4025 
L 231.986127 172.227789 
Q 231.986127 172.250726 236.167035 172.250726 
z
" clip-path="url(#pa0e8b1aa15)" style="fill: #b7b7b7"/>
   </g>
   <g id="patch_9">
    <path d="M 271.359863 172.250726 
L 286.225313 172.250726 
Q 290.406221 172.250726 290.406221 172.227789 
L 290.406221 152.387619 
Q 290.406221 152.364683 286.225313 152.364683 
L 271.359863 152.364683 
Q 267.178955 152.364683 267.178955 152.387619 
L 267.178955 172.227789 
Q 267.178955 172.250726 271.359863 172.250726 
z
" clip-path="url(#pa0e8b1aa15)" style="fill: #b7b7b7"/>
   </g>
   <g id="patch_10">
    <path d="M 306.552691 172.250726 
L 321.418141 172.250726 
Q 325.599049 172.250726 325.599049 172.227789 
L 325.599049 154.125235 
Q 325.599049 154.102298 321.418141 154.102298 
L 306.552691 154.102298 
Q 302.371783 154.102298 302.371783 154.125235 
L 302.371783 172.227789 
Q 302.371783 172.250726 306.552691 172.250726 
z
" clip-path="url(#pa0e8b1aa15)" style="fill: #b7b7b7"/>
   </g>
   <g id="patch_11">
    <path d="M 341.745519 172.250726 
L 356.61097 172.250726 
Q 360.791878 172.250726 360.791878 172.227789 
L 360.791878 155.283645 
Q 360.791878 155.260709 356.61097 155.260709 
L 341.745519 155.260709 
Q 337.564611 155.260709 337.564611 155.283645 
L 337.564611 172.227789 
Q 337.564611 172.250726 341.745519 172.250726 
z
" clip-path="url(#pa0e8b1aa15)" style="fill: #b7b7b7"/>
   </g>
   <g id="patch_12">
    <path d="M 376.938347 172.250726 
L 391.803798 172.250726 
Q 395.984706 172.250726 395.984706 172.227789 
L 395.984706 156.442055 
Q 395.984706 156.419119 391.803798 156.419119 
L 376.938347 156.419119 
Q 372.757439 156.419119 372.757439 156.442055 
L 372.757439 172.227789 
Q 372.757439 172.250726 376.938347 172.250726 
z
" clip-path="url(#pa0e8b1aa15)" style="fill: #b7b7b7"/>
   </g>
   <g id="patch_13">
    <path d="M 412.131175 172.250726 
L 426.996626 172.250726 
Q 431.177534 172.250726 431.177534 172.227789 
L 431.177534 74.9672 
Q 431.177534 74.944263 426.996626 74.944263 
L 412.131175 74.944263 
Q 407.950267 74.944263 407.950267 74.9672 
L 407.950267 172.227789 
Q 407.950267 172.250726 412.131175 172.250726 
z
" clip-path="url(#pa0e8b1aa15)" style="fill: #b7b7b7"/>
   </g>
   <g id="patch_14">
    <path d="M 44.760281 172.250726 
L 44.760281 8.903294 
" style="fill: none; stroke: #7a7a7a; stroke-width: 0.5; stroke-linejoin: miter; stroke-linecap: square"/>
   </g>
   <g id="patch_15">
    <path d="M 44.760281 172.250726 
L 442.439239 172.250726 
" style="fill: none; stroke: #7a7a7a; stroke-width: 0.5; stroke-linejoin: miter; stroke-linecap: square"/>
   </g>
  </g>
  <g id="axes_2">
   <g id="matplotlib.axis_3">
    <g id="ytick_10">
     <g id="line2d_30">
      <defs>
       <path id="m5c91ac74e4" d="M 0 0 
L 3.4 0 
" style="stroke: #7a7a7a; stroke-width: 0.5"/>
      </defs>
      <g>
       <use xlink:href="#m5c91ac74e4" x="442.439239" y="172.250726" style="fill: #7a7a7a; stroke: #7a7a7a; stroke-width: 0.5"/>
      </g>
     </g>
     <g id="text_22">
      <!-- 0 -->
      <g transform="translate(449.839239 175.024156) scale(0.073 -0.073)">
       <use xlink:href="#DejaVuSans-30"/>
      </g>
     </g>
    </g>
    <g id="ytick_11">
     <g id="line2d_31">
      <g>
       <use xlink:href="#m5c91ac74e4" x="442.439239" y="141.136929" style="fill: #7a7a7a; stroke: #7a7a7a; stroke-width: 0.5"/>
      </g>
     </g>
     <g id="text_23">
      <!-- 20 -->
      <g transform="translate(449.839239 143.910359) scale(0.073 -0.073)">
       <use xlink:href="#DejaVuSans-32"/>
       <use xlink:href="#DejaVuSans-30" transform="translate(63.623047 0)"/>
      </g>
     </g>
    </g>
    <g id="ytick_12">
     <g id="line2d_32">
      <g>
       <use xlink:href="#m5c91ac74e4" x="442.439239" y="110.023133" style="fill: #7a7a7a; stroke: #7a7a7a; stroke-width: 0.5"/>
      </g>
     </g>
     <g id="text_24">
      <!-- 40 -->
      <g transform="translate(449.839239 112.796562) scale(0.073 -0.073)">
       <use xlink:href="#DejaVuSans-34"/>
       <use xlink:href="#DejaVuSans-30" transform="translate(63.623047 0)"/>
      </g>
     </g>
    </g>
    <g id="ytick_13">
     <g id="line2d_33">
      <g>
       <use xlink:href="#m5c91ac74e4" x="442.439239" y="78.909336" style="fill: #7a7a7a; stroke: #7a7a7a; stroke-width: 0.5"/>
      </g>
     </g>
     <g id="text_25">
      <!-- 60 -->
      <g transform="translate(449.839239 81.682766) scale(0.073 -0.073)">
       <use xlink:href="#DejaVuSans-36"/>
       <use xlink:href="#DejaVuSans-30" transform="translate(63.623047 0)"/>
      </g>
     </g>
    </g>
    <g id="ytick_14">
     <g id="line2d_34">
      <g>
       <use xlink:href="#m5c91ac74e4" x="442.439239" y="47.795539" style="fill: #7a7a7a; stroke: #7a7a7a; stroke-width: 0.5"/>
      </g>
     </g>
     <g id="text_26">
      <!-- 80 -->
      <g transform="translate(449.839239 50.568969) scale(0.073 -0.073)">
       <use xlink:href="#DejaVuSans-38"/>
       <use xlink:href="#DejaVuSans-30" transform="translate(63.623047 0)"/>
      </g>
     </g>
    </g>
    <g id="ytick_15">
     <g id="line2d_35">
      <g>
       <use xlink:href="#m5c91ac74e4" x="442.439239" y="16.681743" style="fill: #7a7a7a; stroke: #7a7a7a; stroke-width: 0.5"/>
      </g>
     </g>
     <g id="text_27">
      <!-- 100 -->
      <g transform="translate(449.839239 19.455173) scale(0.073 -0.073)">
       <use xlink:href="#DejaVuSans-31"/>
       <use xlink:href="#DejaVuSans-30" transform="translate(63.623047 0)"/>
       <use xlink:href="#DejaVuSans-30" transform="translate(127.246094 0)"/>
      </g>
     </g>
    </g>
    <g id="text_28">
     <!-- Cumulative failures (%) -->
     <g transform="translate(478.231786 140.525799) rotate(-90) scale(0.085 -0.085)">
      <defs>
       <path id="DejaVuSans-66" d="M 2375 4863 
L 2375 4384 
L 1825 4384 
Q 1516 4384 1395 4259 
Q 1275 4134 1275 3809 
L 1275 3500 
L 2222 3500 
L 2222 3053 
L 1275 3053 
L 1275 0 
L 697 0 
L 697 3053 
L 147 3053 
L 147 3500 
L 697 3500 
L 697 3744 
Q 697 4328 969 4595 
Q 1241 4863 1831 4863 
L 2375 4863 
z
" transform="scale(0.015625)"/>
       <path id="DejaVuSans-28" d="M 1984 4856 
Q 1566 4138 1362 3434 
Q 1159 2731 1159 2009 
Q 1159 1288 1364 580 
Q 1569 -128 1984 -844 
L 1484 -844 
Q 1016 -109 783 600 
Q 550 1309 550 2009 
Q 550 2706 781 3412 
Q 1013 4119 1484 4856 
L 1984 4856 
z
" transform="scale(0.015625)"/>
       <path id="DejaVuSans-25" d="M 4653 2053 
Q 4381 2053 4226 1822 
Q 4072 1591 4072 1178 
Q 4072 772 4226 539 
Q 4381 306 4653 306 
Q 4919 306 5073 539 
Q 5228 772 5228 1178 
Q 5228 1588 5073 1820 
Q 4919 2053 4653 2053 
z
M 4653 2450 
Q 5147 2450 5437 2106 
Q 5728 1763 5728 1178 
Q 5728 594 5436 251 
Q 5144 -91 4653 -91 
Q 4153 -91 3862 251 
Q 3572 594 3572 1178 
Q 3572 1766 3864 2108 
Q 4156 2450 4653 2450 
z
M 1428 4353 
Q 1159 4353 1004 4120 
Q 850 3888 850 3481 
Q 850 3069 1003 2837 
Q 1156 2606 1428 2606 
Q 1700 2606 1854 2837 
Q 2009 3069 2009 3481 
Q 2009 3884 1853 4118 
Q 1697 4353 1428 4353 
z
M 4250 4750 
L 4750 4750 
L 1831 -91 
L 1331 -91 
L 4250 4750 
z
M 1428 4750 
Q 1922 4750 2215 4408 
Q 2509 4066 2509 3481 
Q 2509 2891 2217 2550 
Q 1925 2209 1428 2209 
Q 931 2209 642 2551 
Q 353 2894 353 3481 
Q 353 4063 643 4406 
Q 934 4750 1428 4750 
z
" transform="scale(0.015625)"/>
       <path id="DejaVuSans-29" d="M 513 4856 
L 1013 4856 
Q 1481 4119 1714 3412 
Q 1947 2706 1947 2009 
Q 1947 1309 1714 600 
Q 1481 -109 1013 -844 
L 513 -844 
Q 928 -128 1133 580 
Q 1338 1288 1338 2009 
Q 1338 2731 1133 3434 
Q 928 4138 513 4856 
z
" transform="scale(0.015625)"/>
      </defs>
      <use xlink:href="#DejaVuSans-43"/>
      <use xlink:href="#DejaVuSans-75" transform="translate(69.824219 0)"/>
      <use xlink:href="#DejaVuSans-6d" transform="translate(133.203125 0)"/>
      <use xlink:href="#DejaVuSans-75" transform="translate(230.615234 0)"/>
      <use xlink:href="#DejaVuSans-6c" transform="translate(293.994141 0)"/>
      <use xlink:href="#DejaVuSans-61" transform="translate(321.777344 0)"/>
      <use xlink:href="#DejaVuSans-74" transform="translate(383.056641 0)"/>
      <use xlink:href="#DejaVuSans-69" transform="translate(422.265625 0)"/>
      <use xlink:href="#DejaVuSans-76" transform="translate(450.048828 0)"/>
      <use xlink:href="#DejaVuSans-65" transform="translate(509.228516 0)"/>
      <use xlink:href="#DejaVuSans-20" transform="translate(570.751953 0)"/>
      <use xlink:href="#DejaVuSans-66" transform="translate(602.539062 0)"/>
      <use xlink:href="#DejaVuSans-61" transform="translate(637.744141 0)"/>
      <use xlink:href="#DejaVuSans-69" transform="translate(699.023438 0)"/>
      <use xlink:href="#DejaVuSans-6c" transform="translate(726.806641 0)"/>
      <use xlink:href="#DejaVuSans-75" transform="translate(754.589844 0)"/>
      <use xlink:href="#DejaVuSans-72" transform="translate(817.96875 0)"/>
      <use xlink:href="#DejaVuSans-65" transform="translate(856.832031 0)"/>
      <use xlink:href="#DejaVuSans-73" transform="translate(918.355469 0)"/>
      <use xlink:href="#DejaVuSans-20" transform="translate(970.455078 0)"/>
      <use xlink:href="#DejaVuSans-28" transform="translate(1002.242188 0)"/>
      <use xlink:href="#DejaVuSans-25" transform="translate(1041.255859 0)"/>
      <use xlink:href="#DejaVuSans-29" transform="translate(1136.275391 0)"/>
     </g>
    </g>
   </g>
   <g id="line2d_36">
    <path d="M 67.63562 130.411656 
L 102.828448 103.86106 
L 138.021276 91.957057 
L 173.214104 83.495878 
L 208.406932 75.326465 
L 243.59976 67.507168 
L 278.792588 61.496814 
L 313.985416 56.011636 
L 349.178244 50.876576 
L 384.371072 46.091633 
L 419.5639 16.681743 
" clip-path="url(#pa0e8b1aa15)" style="fill: none; stroke: #4e79a7; stroke-width: 1.45; stroke-linecap: square"/>
    <defs>
     <path id="mf09c3f4d8c" d="M 0 1.6 
C 0.424325 1.6 0.831328 1.431414 1.131371 1.131371 
C 1.431414 0.831328 1.6 0.424325 1.6 0 
C 1.6 -0.424325 1.431414 -0.831328 1.131371 -1.131371 
C 0.831328 -1.431414 0.424325 -1.6 0 -1.6 
C -0.424325 -1.6 -0.831328 -1.431414 -1.131371 -1.131371 
C -1.431414 -0.831328 -1.6 -0.424325 -1.6 0 
C -1.6 0.424325 -1.431414 0.831328 -1.131371 1.131371 
C -0.831328 1.431414 -0.424325 1.6 0 1.6 
z
"/>
    </defs>
    <g clip-path="url(#pa0e8b1aa15)">
     <use xlink:href="#mf09c3f4d8c" x="67.63562" y="130.411656" style="fill: #4e79a7"/>
     <use xlink:href="#mf09c3f4d8c" x="102.828448" y="103.86106" style="fill: #4e79a7"/>
     <use xlink:href="#mf09c3f4d8c" x="138.021276" y="91.957057" style="fill: #4e79a7"/>
     <use xlink:href="#mf09c3f4d8c" x="173.214104" y="83.495878" style="fill: #4e79a7"/>
     <use xlink:href="#mf09c3f4d8c" x="208.406932" y="75.326465" style="fill: #4e79a7"/>
     <use xlink:href="#mf09c3f4d8c" x="243.59976" y="67.507168" style="fill: #4e79a7"/>
     <use xlink:href="#mf09c3f4d8c" x="278.792588" y="61.496814" style="fill: #4e79a7"/>
     <use xlink:href="#mf09c3f4d8c" x="313.985416" y="56.011636" style="fill: #4e79a7"/>
     <use xlink:href="#mf09c3f4d8c" x="349.178244" y="50.876576" style="fill: #4e79a7"/>
     <use xlink:href="#mf09c3f4d8c" x="384.371072" y="46.091633" style="fill: #4e79a7"/>
     <use xlink:href="#mf09c3f4d8c" x="419.5639" y="16.681743" style="fill: #4e79a7"/>
    </g>
   </g>
   <g id="patch_16">
    <path d="M 44.760281 172.250726 
L 442.439239 172.250726 
" style="fill: none; stroke: #000000; stroke-width: 0.5; stroke-linejoin: miter; stroke-linecap: square"/>
   </g>
   <g id="text_29">
    <!-- 26.9% -->
    <g style="fill: #2f2f2f" transform="translate(57.054502 125.56496) scale(0.061 -0.061)">
     <defs>
      <path id="DejaVuSans-Bold-32" d="M 1844 884 
L 3897 884 
L 3897 0 
L 506 0 
L 506 884 
L 2209 2388 
Q 2438 2594 2547 2791 
Q 2656 2988 2656 3200 
Q 2656 3528 2436 3728 
Q 2216 3928 1850 3928 
Q 1569 3928 1234 3808 
Q 900 3688 519 3450 
L 519 4475 
Q 925 4609 1322 4679 
Q 1719 4750 2100 4750 
Q 2938 4750 3402 4381 
Q 3866 4013 3866 3353 
Q 3866 2972 3669 2642 
Q 3472 2313 2841 1759 
L 1844 884 
z
" transform="scale(0.015625)"/>
      <path id="DejaVuSans-Bold-36" d="M 2316 2303 
Q 2000 2303 1842 2098 
Q 1684 1894 1684 1484 
Q 1684 1075 1842 870 
Q 2000 666 2316 666 
Q 2634 666 2792 870 
Q 2950 1075 2950 1484 
Q 2950 1894 2792 2098 
Q 2634 2303 2316 2303 
z
M 3803 4544 
L 3803 3681 
Q 3506 3822 3243 3889 
Q 2981 3956 2731 3956 
Q 2194 3956 1894 3657 
Q 1594 3359 1544 2772 
Q 1750 2925 1990 3001 
Q 2231 3078 2516 3078 
Q 3231 3078 3670 2659 
Q 4109 2241 4109 1563 
Q 4109 813 3618 361 
Q 3128 -91 2303 -91 
Q 1394 -91 895 523 
Q 397 1138 397 2266 
Q 397 3422 980 4083 
Q 1563 4744 2578 4744 
Q 2900 4744 3203 4694 
Q 3506 4644 3803 4544 
z
" transform="scale(0.015625)"/>
      <path id="DejaVuSans-Bold-2e" d="M 653 1209 
L 1778 1209 
L 1778 0 
L 653 0 
L 653 1209 
z
" transform="scale(0.015625)"/>
      <path id="DejaVuSans-Bold-39" d="M 641 103 
L 641 966 
Q 928 831 1190 764 
Q 1453 697 1709 697 
Q 2247 697 2547 995 
Q 2847 1294 2900 1881 
Q 2688 1725 2447 1647 
Q 2206 1569 1925 1569 
Q 1209 1569 770 1986 
Q 331 2403 331 3084 
Q 331 3838 820 4291 
Q 1309 4744 2131 4744 
Q 3044 4744 3544 4128 
Q 4044 3513 4044 2388 
Q 4044 1231 3459 570 
Q 2875 -91 1856 -91 
Q 1528 -91 1228 -42 
Q 928 6 641 103 
z
M 2125 2350 
Q 2441 2350 2600 2554 
Q 2759 2759 2759 3169 
Q 2759 3575 2600 3781 
Q 2441 3988 2125 3988 
Q 1809 3988 1650 3781 
Q 1491 3575 1491 3169 
Q 1491 2759 1650 2554 
Q 1809 2350 2125 2350 
z
" transform="scale(0.015625)"/>
      <path id="DejaVuSans-Bold-25" d="M 4959 1925 
Q 4738 1925 4616 1733 
Q 4494 1541 4494 1184 
Q 4494 825 4614 633 
Q 4734 441 4959 441 
Q 5184 441 5303 633 
Q 5422 825 5422 1184 
Q 5422 1541 5301 1733 
Q 5181 1925 4959 1925 
z
M 4959 2450 
Q 5541 2450 5875 2112 
Q 6209 1775 6209 1184 
Q 6209 594 5875 251 
Q 5541 -91 4959 -91 
Q 4378 -91 4042 251 
Q 3706 594 3706 1184 
Q 3706 1772 4042 2111 
Q 4378 2450 4959 2450 
z
M 2094 -91 
L 1403 -91 
L 4319 4750 
L 5013 4750 
L 2094 -91 
z
M 1453 4750 
Q 2034 4750 2367 4411 
Q 2700 4072 2700 3481 
Q 2700 2891 2367 2550 
Q 2034 2209 1453 2209 
Q 872 2209 539 2550 
Q 206 2891 206 3481 
Q 206 4072 539 4411 
Q 872 4750 1453 4750 
z
M 1453 4225 
Q 1228 4225 1106 4031 
Q 984 3838 984 3481 
Q 984 3122 1106 2926 
Q 1228 2731 1453 2731 
Q 1678 2731 1798 2926 
Q 1919 3122 1919 3481 
Q 1919 3838 1797 4031 
Q 1675 4225 1453 4225 
z
" transform="scale(0.015625)"/>
     </defs>
     <use xlink:href="#DejaVuSans-Bold-32"/>
     <use xlink:href="#DejaVuSans-Bold-36" transform="translate(69.580078 0)"/>
     <use xlink:href="#DejaVuSans-Bold-2e" transform="translate(139.160156 0)"/>
     <use xlink:href="#DejaVuSans-Bold-39" transform="translate(177.148438 0)"/>
     <use xlink:href="#DejaVuSans-Bold-25" transform="translate(246.728516 0)"/>
    </g>
   </g>
   <g id="text_30">
    <!-- 44.0% -->
    <g style="fill: #2f2f2f" transform="translate(92.24733 99.014364) scale(0.061 -0.061)">
     <defs>
      <path id="DejaVuSans-Bold-34" d="M 2356 3675 
L 1038 1722 
L 2356 1722 
L 2356 3675 
z
M 2156 4666 
L 3494 4666 
L 3494 1722 
L 4159 1722 
L 4159 850 
L 3494 850 
L 3494 0 
L 2356 0 
L 2356 850 
L 288 850 
L 288 1881 
L 2156 4666 
z
" transform="scale(0.015625)"/>
      <path id="DejaVuSans-Bold-30" d="M 2944 2338 
Q 2944 3213 2780 3570 
Q 2616 3928 2228 3928 
Q 1841 3928 1675 3570 
Q 1509 3213 1509 2338 
Q 1509 1453 1675 1090 
Q 1841 728 2228 728 
Q 2613 728 2778 1090 
Q 2944 1453 2944 2338 
z
M 4147 2328 
Q 4147 1169 3647 539 
Q 3147 -91 2228 -91 
Q 1306 -91 806 539 
Q 306 1169 306 2328 
Q 306 3491 806 4120 
Q 1306 4750 2228 4750 
Q 3147 4750 3647 4120 
Q 4147 3491 4147 2328 
z
" transform="scale(0.015625)"/>
     </defs>
     <use xlink:href="#DejaVuSans-Bold-34"/>
     <use xlink:href="#DejaVuSans-Bold-34" transform="translate(69.580078 0)"/>
     <use xlink:href="#DejaVuSans-Bold-2e" transform="translate(139.160156 0)"/>
     <use xlink:href="#DejaVuSans-Bold-30" transform="translate(177.148438 0)"/>
     <use xlink:href="#DejaVuSans-Bold-25" transform="translate(246.728516 0)"/>
    </g>
   </g>
   <g id="text_31">
    <!-- 51.6% -->
    <g style="fill: #2f2f2f" transform="translate(127.440159 87.110361) scale(0.061 -0.061)">
     <defs>
      <path id="DejaVuSans-Bold-35" d="M 678 4666 
L 3669 4666 
L 3669 3781 
L 1638 3781 
L 1638 3059 
Q 1775 3097 1914 3117 
Q 2053 3138 2203 3138 
Q 3056 3138 3531 2711 
Q 4006 2284 4006 1522 
Q 4006 766 3489 337 
Q 2972 -91 2053 -91 
Q 1656 -91 1267 -14 
Q 878 63 494 219 
L 494 1166 
Q 875 947 1217 837 
Q 1559 728 1863 728 
Q 2300 728 2551 942 
Q 2803 1156 2803 1522 
Q 2803 1891 2551 2103 
Q 2300 2316 1863 2316 
Q 1603 2316 1309 2248 
Q 1016 2181 678 2041 
L 678 4666 
z
" transform="scale(0.015625)"/>
      <path id="DejaVuSans-Bold-31" d="M 750 831 
L 1813 831 
L 1813 3847 
L 722 3622 
L 722 4441 
L 1806 4666 
L 2950 4666 
L 2950 831 
L 4013 831 
L 4013 0 
L 750 0 
L 750 831 
z
" transform="scale(0.015625)"/>
     </defs>
     <use xlink:href="#DejaVuSans-Bold-35"/>
     <use xlink:href="#DejaVuSans-Bold-31" transform="translate(69.580078 0)"/>
     <use xlink:href="#DejaVuSans-Bold-2e" transform="translate(139.160156 0)"/>
     <use xlink:href="#DejaVuSans-Bold-36" transform="translate(177.148438 0)"/>
     <use xlink:href="#DejaVuSans-Bold-25" transform="translate(246.728516 0)"/>
    </g>
   </g>
   <g id="text_32">
    <!-- 57.1% -->
    <g style="fill: #2f2f2f" transform="translate(163.525112 78.649182) scale(0.061 -0.061)">
     <defs>
      <path id="DejaVuSans-2e" d="M 684 794 
L 1344 794 
L 1344 0 
L 684 0 
L 684 794 
z
" transform="scale(0.015625)"/>
     </defs>
     <use xlink:href="#DejaVuSans-35"/>
     <use xlink:href="#DejaVuSans-37" transform="translate(63.623047 0)"/>
     <use xlink:href="#DejaVuSans-2e" transform="translate(127.246094 0)"/>
     <use xlink:href="#DejaVuSans-31" transform="translate(159.033203 0)"/>
     <use xlink:href="#DejaVuSans-25" transform="translate(222.65625 0)"/>
    </g>
   </g>
   <g id="text_33">
    <!-- 62.3% -->
    <g style="fill: #2f2f2f" transform="translate(198.71794 70.479769) scale(0.061 -0.061)">
     <use xlink:href="#DejaVuSans-36"/>
     <use xlink:href="#DejaVuSans-32" transform="translate(63.623047 0)"/>
     <use xlink:href="#DejaVuSans-2e" transform="translate(127.246094 0)"/>
     <use xlink:href="#DejaVuSans-33" transform="translate(159.033203 0)"/>
     <use xlink:href="#DejaVuSans-25" transform="translate(222.65625 0)"/>
    </g>
   </g>
   <g id="text_34">
    <!-- 67.3% -->
    <g style="fill: #2f2f2f" transform="translate(233.910768 62.660472) scale(0.061 -0.061)">
     <use xlink:href="#DejaVuSans-36"/>
     <use xlink:href="#DejaVuSans-37" transform="translate(63.623047 0)"/>
     <use xlink:href="#DejaVuSans-2e" transform="translate(127.246094 0)"/>
     <use xlink:href="#DejaVuSans-33" transform="translate(159.033203 0)"/>
     <use xlink:href="#DejaVuSans-25" transform="translate(222.65625 0)"/>
    </g>
   </g>
   <g id="text_35">
    <!-- 71.2% -->
    <g style="fill: #2f2f2f" transform="translate(269.103596 56.650118) scale(0.061 -0.061)">
     <use xlink:href="#DejaVuSans-37"/>
     <use xlink:href="#DejaVuSans-31" transform="translate(63.623047 0)"/>
     <use xlink:href="#DejaVuSans-2e" transform="translate(127.246094 0)"/>
     <use xlink:href="#DejaVuSans-32" transform="translate(159.033203 0)"/>
     <use xlink:href="#DejaVuSans-25" transform="translate(222.65625 0)"/>
    </g>
   </g>
   <g id="text_36">
    <!-- 74.7% -->
    <g style="fill: #2f2f2f" transform="translate(304.296424 51.16494) scale(0.061 -0.061)">
     <use xlink:href="#DejaVuSans-37"/>
     <use xlink:href="#DejaVuSans-34" transform="translate(63.623047 0)"/>
     <use xlink:href="#DejaVuSans-2e" transform="translate(127.246094 0)"/>
     <use xlink:href="#DejaVuSans-37" transform="translate(159.033203 0)"/>
     <use xlink:href="#DejaVuSans-25" transform="translate(222.65625 0)"/>
    </g>
   </g>
   <g id="text_37">
    <!-- 78.0% -->
    <g style="fill: #2f2f2f" transform="translate(339.489252 46.02988) scale(0.061 -0.061)">
     <use xlink:href="#DejaVuSans-37"/>
     <use xlink:href="#DejaVuSans-38" transform="translate(63.623047 0)"/>
     <use xlink:href="#DejaVuSans-2e" transform="translate(127.246094 0)"/>
     <use xlink:href="#DejaVuSans-30" transform="translate(159.033203 0)"/>
     <use xlink:href="#DejaVuSans-25" transform="translate(222.65625 0)"/>
    </g>
   </g>
   <g id="text_38">
    <!-- 81.1% -->
    <g style="fill: #2f2f2f" transform="translate(374.68208 41.244937) scale(0.061 -0.061)">
     <use xlink:href="#DejaVuSans-38"/>
     <use xlink:href="#DejaVuSans-31" transform="translate(63.623047 0)"/>
     <use xlink:href="#DejaVuSans-2e" transform="translate(127.246094 0)"/>
     <use xlink:href="#DejaVuSans-31" transform="translate(159.033203 0)"/>
     <use xlink:href="#DejaVuSans-25" transform="translate(222.65625 0)"/>
    </g>
   </g>
   <g id="text_39">
    <!-- 100.0% -->
    <g style="fill: #2f2f2f" transform="translate(406.86065 11.835047) scale(0.061 -0.061)">
     <use xlink:href="#DejaVuSans-Bold-31"/>
     <use xlink:href="#DejaVuSans-Bold-30" transform="translate(69.580078 0)"/>
     <use xlink:href="#DejaVuSans-Bold-30" transform="translate(139.160156 0)"/>
     <use xlink:href="#DejaVuSans-Bold-2e" transform="translate(208.740234 0)"/>
     <use xlink:href="#DejaVuSans-Bold-30" transform="translate(246.728516 0)"/>
     <use xlink:href="#DejaVuSans-Bold-25" transform="translate(316.308594 0)"/>
    </g>
   </g>
  </g>
 </g>
 <defs>
  <clipPath id="pa0e8b1aa15">
   <rect x="44.760281" y="8.903294" width="397.678958" height="163.347432"/>
  </clipPath>
 </defs>
</svg>
