<?xml version="1.0" encoding="utf-8" standalone="no"?>
<!DOCTYPE svg PUBLIC "-//W3C//DTD SVG 1.1//EN"
  "http://www.w3.org/Graphics/SVG/1.1/DTD/svg11.dtd">
<svg xmlns:xlink="http://www.w3.org/1999/xlink" width="263.99952pt" height="384.95952pt" viewBox="0 0 263.99952 384.95952" xmlns="http://www.w3.org/2000/svg" version="1.1">
 <metadata>
  <rdf:RDF xmlns:dc="http://purl.org/dc/elements/1.1/" xmlns:cc="http://creativecommons.org/ns#" xmlns:rdf="http://www.w3.org/1999/02/22-rdf-syntax-ns#">
   <cc:Work>
    <dc:type rdf:resource="http://purl.org/dc/dcmitype/StillImage"/>
    <dc:date>2026-07-06T19:14:05.966815</dc:date>
    <dc:format>image/svg+xml</dc:format>
    <dc:creator>
     <cc:Agent>
      <dc:title>Matplotlib v3.10.0, https://matplotlib.org/</dc:title>
     </cc:Agent>
    </dc:creator>
   </cc:Work>
  </rdf:RDF>
 </metadata>
 <defs>
  <style type="text/css">*{stroke-linejoin: round; stroke-linecap: butt}</style>
 </defs>
 <g id="figure_1">
  <g id="patch_1">
   <path d="M 0 384.95952 
L 263.99952 384.95952 
L 263.99952 0 
L 0 0 
z
" style="fill: #ffffff"/>
  </g>
  <g id="axes_1">
   <g id="patch_2">
    <path d="M 53.235547 347.164864 
L 249.92802 347.164864 
L 249.92802 7.2 
L 53.235547 7.2 
z
" style="fill: #ffffff"/>
   </g>
   <g id="matplotlib.axis_1">
    <g id="xtick_1">
     <g id="line2d_1">
      <path d="M 53.235547 347.164864 
L 53.235547 7.2 
" clip-path="url(#pc9ff961d64)" style="fill: none; stroke: #e8e8e8; stroke-width: 0.5; stroke-linecap: square"/>
     </g>
     <g id="line2d_2">
      <defs>
       <path id="m6f226a3384" d="M 0 0 
L 0 3.4 
" style="stroke: #7a7a7a; stroke-width: 0.5"/>
      </defs>
      <g>
       <use xlink:href="#m6f226a3384" x="53.235547" y="347.164864" style="fill: #7a7a7a; stroke: #7a7a7a; stroke-width: 0.5"/>
      </g>
     </g>
     <g id="text_1">
      <!-- 0 -->
      <g transform="translate(50.945047 360.035739) scale(0.072 -0.072)">
       <defs>
        <path id="DejaVuSans-30" d="M 2034 4250 
Q 1547 4250 1301 3770 
Q 1056 3291 1056 2328 
Q 1056 1369 1301 889 
Q 1547 409 2034 409 
Q 2525 409 2770 889 
Q 3016 1369 3016 2328 
Q 3016 3291 2770 3770 
Q 2525 4250 2034 4250 
z
M 2034 4750 
Q 2819 4750 3233 4129 
Q 3647 3509 3647 2328 
Q 3647 1150 3233 529 
Q 2819 -91 2034 -91 
Q 1250 -91 836 529 
Q 422 1150 422 2328 
Q 422 3509 836 4129 
Q 1250 4750 2034 4750 
z
" transform="scale(0.015625)"/>
       </defs>
       <use xlink:href="#DejaVuSans-30"/>
      </g>
     </g>
    </g>
    <g id="xtick_2">
     <g id="line2d_3">
      <path d="M 92.574042 347.164864 
L 92.574042 7.2 
" clip-path="url(#pc9ff961d64)" style="fill: none; stroke: #e8e8e8; stroke-width: 0.5; stroke-linecap: square"/>
     </g>
     <g id="line2d_4">
      <g>
       <use xlink:href="#m6f226a3384" x="92.574042" y="347.164864" style="fill: #7a7a7a; stroke: #7a7a7a; stroke-width: 0.5"/>
      </g>
     </g>
     <g id="text_2">
      <!-- 20 -->
      <g transform="translate(87.993042 360.035739) scale(0.072 -0.072)">
       <defs>
        <path id="DejaVuSans-32" d="M 1228 531 
L 3431 531 
L 3431 0 
L 469 0 
L 469 531 
Q 828 903 1448 1529 
Q 2069 2156 2228 2338 
Q 2531 2678 2651 2914 
Q 2772 3150 2772 3378 
Q 2772 3750 2511 3984 
Q 2250 4219 1831 4219 
Q 1534 4219 1204 4116 
Q 875 4013 500 3803 
L 500 4441 
Q 881 4594 1212 4672 
Q 1544 4750 1819 4750 
Q 2544 4750 2975 4387 
Q 3406 4025 3406 3419 
Q 3406 3131 3298 2873 
Q 3191 2616 2906 2266 
Q 2828 2175 2409 1742 
Q 1991 1309 1228 531 
z
" transform="scale(0.015625)"/>
       </defs>
       <use xlink:href="#DejaVuSans-32"/>
       <use xlink:href="#DejaVuSans-30" transform="translate(63.623047 0)"/>
      </g>
     </g>
    </g>
    <g id="xtick_3">
     <g id="line2d_5">
      <path d="M 131.912536 347.164864 
L 131.912536 7.2 
" clip-path="url(#pc9ff961d64)" style="fill: none; stroke: #e8e8e8; stroke-width: 0.5; stroke-linecap: square"/>
     </g>
     <g id="line2d_6">
      <g>
       <use xlink:href="#m6f226a3384" x="131.912536" y="347.164864" style="fill: #7a7a7a; stroke: #7a7a7a; stroke-width: 0.5"/>
      </g>
     </g>
     <g id="text_3">
      <!-- 40 -->
      <g transform="translate(127.331536 360.035739) scale(0.072 -0.072)">
       <defs>
        <path id="DejaVuSans-34" d="M 2419 4116 
L 825 1625 
L 2419 1625 
L 2419 4116 
z
M 2253 4666 
L 3047 4666 
L 3047 1625 
L 3713 1625 
L 3713 1100 
L 3047 1100 
L 3047 0 
L 2419 0 
L 2419 1100 
L 313 1100 
L 313 1709 
L 2253 4666 
z
" transform="scale(0.015625)"/>
       </defs>
       <use xlink:href="#DejaVuSans-34"/>
       <use xlink:href="#DejaVuSans-30" transform="translate(63.623047 0)"/>
      </g>
     </g>
    </g>
    <g id="xtick_4">
     <g id="line2d_7">
      <path d="M 171.251031 347.164864 
L 171.251031 7.2 
" clip-path="url(#pc9ff961d64)" style="fill: none; stroke: #e8e8e8; stroke-width: 0.5; stroke-linecap: square"/>
     </g>
     <g id="line2d_8">
      <g>
       <use xlink:href="#m6f226a3384" x="171.251031" y="347.164864" style="fill: #7a7a7a; stroke: #7a7a7a; stroke-width: 0.5"/>
      </g>
     </g>
     <g id="text_4">
      <!-- 60 -->
      <g transform="translate(166.670031 360.035739) scale(0.072 -0.072)">
       <defs>
        <path id="DejaVuSans-36" d="M 2113 2584 
Q 1688 2584 1439 2293 
Q 1191 2003 1191 1497 
Q 1191 994 1439 701 
Q 1688 409 2113 409 
Q 2538 409 2786 701 
Q 3034 994 3034 1497 
Q 3034 2003 2786 2293 
Q 2538 2584 2113 2584 
z
M 3366 4563 
L 3366 3988 
Q 3128 4100 2886 4159 
Q 2644 4219 2406 4219 
Q 1781 4219 1451 3797 
Q 1122 3375 1075 2522 
Q 1259 2794 1537 2939 
Q 1816 3084 2150 3084 
Q 2853 3084 3261 2657 
Q 3669 2231 3669 1497 
Q 3669 778 3244 343 
Q 2819 -91 2113 -91 
Q 1303 -91 875 529 
Q 447 1150 447 2328 
Q 447 3434 972 4092 
Q 1497 4750 2381 4750 
Q 2619 4750 2861 4703 
Q 3103 4656 3366 4563 
z
" transform="scale(0.015625)"/>
       </defs>
       <use xlink:href="#DejaVuSans-36"/>
       <use xlink:href="#DejaVuSans-30" transform="translate(63.623047 0)"/>
      </g>
     </g>
    </g>
    <g id="xtick_5">
     <g id="line2d_9">
      <path d="M 210.589525 347.164864 
L 210.589525 7.2 
" clip-path="url(#pc9ff961d64)" style="fill: none; stroke: #e8e8e8; stroke-width: 0.5; stroke-linecap: square"/>
     </g>
     <g id="line2d_10">
      <g>
       <use xlink:href="#m6f226a3384" x="210.589525" y="347.164864" style="fill: #7a7a7a; stroke: #7a7a7a; stroke-width: 0.5"/>
      </g>
     </g>
     <g id="text_5">
      <!-- 80 -->
      <g transform="translate(206.008525 360.035739) scale(0.072 -0.072)">
       <defs>
        <path id="DejaVuSans-38" d="M 2034 2216 
Q 1584 2216 1326 1975 
Q 1069 1734 1069 1313 
Q 1069 891 1326 650 
Q 1584 409 2034 409 
Q 2484 409 2743 651 
Q 3003 894 3003 1313 
Q 3003 1734 2745 1975 
Q 2488 2216 2034 2216 
z
M 1403 2484 
Q 997 2584 770 2862 
Q 544 3141 544 3541 
Q 544 4100 942 4425 
Q 1341 4750 2034 4750 
Q 2731 4750 3128 4425 
Q 3525 4100 3525 3541 
Q 3525 3141 3298 2862 
Q 3072 2584 2669 2484 
Q 3125 2378 3379 2068 
Q 3634 1759 3634 1313 
Q 3634 634 3220 271 
Q 2806 -91 2034 -91 
Q 1263 -91 848 271 
Q 434 634 434 1313 
Q 434 1759 690 2068 
Q 947 2378 1403 2484 
z
M 1172 3481 
Q 1172 3119 1398 2916 
Q 1625 2713 2034 2713 
Q 2441 2713 2670 2916 
Q 2900 3119 2900 3481 
Q 2900 3844 2670 4047 
Q 2441 4250 2034 4250 
Q 1625 4250 1398 4047 
Q 1172 3844 1172 3481 
z
" transform="scale(0.015625)"/>
       </defs>
       <use xlink:href="#DejaVuSans-38"/>
       <use xlink:href="#DejaVuSans-30" transform="translate(63.623047 0)"/>
      </g>
     </g>
    </g>
    <g id="xtick_6">
     <g id="line2d_11">
      <path d="M 249.92802 347.164864 
L 249.92802 7.2 
" clip-path="url(#pc9ff961d64)" style="fill: none; stroke: #e8e8e8; stroke-width: 0.5; stroke-linecap: square"/>
     </g>
     <g id="line2d_12">
      <g>
       <use xlink:href="#m6f226a3384" x="249.92802" y="347.164864" style="fill: #7a7a7a; stroke: #7a7a7a; stroke-width: 0.5"/>
      </g>
     </g>
     <g id="text_6">
      <!-- 100 -->
      <g transform="translate(243.05652 360.035739) scale(0.072 -0.072)">
       <defs>
        <path id="DejaVuSans-31" d="M 794 531 
L 1825 531 
L 1825 4091 
L 703 3866 
L 703 4441 
L 1819 4666 
L 2450 4666 
L 2450 531 
L 3481 531 
L 3481 0 
L 794 0 
L 794 531 
z
" transform="scale(0.015625)"/>
       </defs>
       <use xlink:href="#DejaVuSans-31"/>
       <use xlink:href="#DejaVuSans-30" transform="translate(63.623047 0)"/>
       <use xlink:href="#DejaVuSans-30" transform="translate(127.246094 0)"/>
      </g>
     </g>
    </g>
    <g id="text_7">
     <!-- Accuracy (%) -->
     <g transform="translate(123.472682 375.991786) scale(0.085 -0.085)">
      <defs>
       <path id="DejaVuSans-41" d="M 2188 4044 
L 1331 1722 
L 3047 1722 
L 2188 4044 
z
M 1831 4666 
L 2547 4666 
L 4325 0 
L 3669 0 
L 3244 1197 
L 1141 1197 
L 716 0 
L 50 0 
L 1831 4666 
z
" transform="scale(0.015625)"/>
       <path id="DejaVuSans-63" d="M 3122 3366 
L 3122 2828 
Q 2878 2963 2633 3030 
Q 2388 3097 2138 3097 
Q 1578 3097 1268 2742 
Q 959 2388 959 1747 
Q 959 1106 1268 751 
Q 1578 397 2138 397 
Q 2388 397 2633 464 
Q 2878 531 3122 666 
L 3122 134 
Q 2881 22 2623 -34 
Q 2366 -91 2075 -91 
Q 1284 -91 818 406 
Q 353 903 353 1747 
Q 353 2603 823 3093 
Q 1294 3584 2113 3584 
Q 2378 3584 2631 3529 
Q 2884 3475 3122 3366 
z
" transform="scale(0.015625)"/>
       <path id="DejaVuSans-75" d="M 544 1381 
L 544 3500 
L 1119 3500 
L 1119 1403 
Q 1119 906 1312 657 
Q 1506 409 1894 409 
Q 2359 409 2629 706 
Q 2900 1003 2900 1516 
L 2900 3500 
L 3475 3500 
L 3475 0 
L 2900 0 
L 2900 538 
Q 2691 219 2414 64 
Q 2138 -91 1772 -91 
Q 1169 -91 856 284 
Q 544 659 544 1381 
z
M 1991 3584 
L 1991 3584 
z
" transform="scale(0.015625)"/>
       <path id="DejaVuSans-72" d="M 2631 2963 
Q 2534 3019 2420 3045 
Q 2306 3072 2169 3072 
Q 1681 3072 1420 2755 
Q 1159 2438 1159 1844 
L 1159 0 
L 581 0 
L 581 3500 
L 1159 3500 
L 1159 2956 
Q 1341 3275 1631 3429 
Q 1922 3584 2338 3584 
Q 2397 3584 2469 3576 
Q 2541 3569 2628 3553 
L 2631 2963 
z
" transform="scale(0.015625)"/>
       <path id="DejaVuSans-61" d="M 2194 1759 
Q 1497 1759 1228 1600 
Q 959 1441 959 1056 
Q 959 750 1161 570 
Q 1363 391 1709 391 
Q 2188 391 2477 730 
Q 2766 1069 2766 1631 
L 2766 1759 
L 2194 1759 
z
M 3341 1997 
L 3341 0 
L 2766 0 
L 2766 531 
Q 2569 213 2275 61 
Q 1981 -91 1556 -91 
Q 1019 -91 701 211 
Q 384 513 384 1019 
Q 384 1609 779 1909 
Q 1175 2209 1959 2209 
L 2766 2209 
L 2766 2266 
Q 2766 2663 2505 2880 
Q 2244 3097 1772 3097 
Q 1472 3097 1187 3025 
Q 903 2953 641 2809 
L 641 3341 
Q 956 3463 1253 3523 
Q 1550 3584 1831 3584 
Q 2591 3584 2966 3190 
Q 3341 2797 3341 1997 
z
" transform="scale(0.015625)"/>
       <path id="DejaVuSans-79" d="M 2059 -325 
Q 1816 -950 1584 -1140 
Q 1353 -1331 966 -1331 
L 506 -1331 
L 506 -850 
L 844 -850 
Q 1081 -850 1212 -737 
Q 1344 -625 1503 -206 
L 1606 56 
L 191 3500 
L 800 3500 
L 1894 763 
L 2988 3500 
L 3597 3500 
L 2059 -325 
z
" transform="scale(0.015625)"/>
       <path id="DejaVuSans-20" transform="scale(0.015625)"/>
       <path id="DejaVuSans-28" d="M 1984 4856 
Q 1566 4138 1362 3434 
Q 1159 2731 1159 2009 
Q 1159 1288 1364 580 
Q 1569 -128 1984 -844 
L 1484 -844 
Q 1016 -109 783 600 
Q 550 1309 550 2009 
Q 550 2706 781 3412 
Q 1013 4119 1484 4856 
L 1984 4856 
z
" transform="scale(0.015625)"/>
       <path id="DejaVuSans-25" d="M 4653 2053 
Q 4381 2053 4226 1822 
Q 4072 1591 4072 1178 
Q 4072 772 4226 539 
Q 4381 306 4653 306 
Q 4919 306 5073 539 
Q 5228 772 5228 1178 
Q 5228 1588 5073 1820 
Q 4919 2053 4653 2053 
z
M 4653 2450 
Q 5147 2450 5437 2106 
Q 5728 1763 5728 1178 
Q 5728 594 5436 251 
Q 5144 -91 4653 -91 
Q 4153 -91 3862 251 
Q 3572 594 3572 1178 
Q 3572 1766 3864 2108 
Q 4156 2450 4653 2450 
z
M 1428 4353 
Q 1159 4353 1004 4120 
Q 850 3888 850 3481 
Q 850 3069 1003 2837 
Q 1156 2606 1428 2606 
Q 1700 2606 1854 2837 
Q 2009 3069 2009 3481 
Q 2009 3884 1853 4118 
Q 1697 4353 1428 4353 
z
M 4250 4750 
L 4750 4750 
L 1831 -91 
L 1331 -91 
L 4250 4750 
z
M 1428 4750 
Q 1922 4750 2215 4408 
Q 2509 4066 2509 3481 
Q 2509 2891 2217 2550 
Q 1925 2209 1428 2209 
Q 931 2209 642 2551 
Q 353 2894 353 3481 
Q 353 4063 643 4406 
Q 934 4750 1428 4750 
z
" transform="scale(0.015625)"/>
       <path id="DejaVuSans-29" d="M 513 4856 
L 1013 4856 
Q 1481 4119 1714 3412 
Q 1947 2706 1947 2009 
Q 1947 1309 1714 600 
Q 1481 -109 1013 -844 
L 513 -844 
Q 928 -128 1133 580 
Q 1338 1288 1338 2009 
Q 1338 2731 1133 3434 
Q 928 4138 513 4856 
z
" transform="scale(0.015625)"/>
      </defs>
      <use xlink:href="#DejaVuSans-41"/>
      <use xlink:href="#DejaVuSans-63" transform="translate(66.658203 0)"/>
      <use xlink:href="#DejaVuSans-63" transform="translate(121.638672 0)"/>
      <use xlink:href="#DejaVuSans-75" transform="translate(176.619141 0)"/>
      <use xlink:href="#DejaVuSans-72" transform="translate(239.998047 0)"/>
      <use xlink:href="#DejaVuSans-61" transform="translate(281.111328 0)"/>
      <use xlink:href="#DejaVuSans-63" transform="translate(342.390625 0)"/>
      <use xlink:href="#DejaVuSans-79" transform="translate(397.371094 0)"/>
      <use xlink:href="#DejaVuSans-20" transform="translate(456.550781 0)"/>
      <use xlink:href="#DejaVuSans-28" transform="translate(488.337891 0)"/>
      <use xlink:href="#DejaVuSans-25" transform="translate(527.351562 0)"/>
      <use xlink:href="#DejaVuSans-29" transform="translate(622.371094 0)"/>
     </g>
    </g>
   </g>
   <g id="matplotlib.axis_2">
    <g id="ytick_1">
     <g id="line2d_13">
      <defs>
       <path id="me67a74bad0" d="M 0 0 
L -3.4 0 
" style="stroke: #7a7a7a; stroke-width: 0.5"/>
      </defs>
      <g>
       <use xlink:href="#me67a74bad0" x="53.235547" y="20.756881" style="fill: #7a7a7a; stroke: #7a7a7a; stroke-width: 0.5"/>
      </g>
     </g>
     <g id="text_8">
      <!-- AVG -->
      <g transform="translate(30.241406 23.606295) scale(0.075 -0.075)">
       <defs>
        <path id="DejaVuSans-56" d="M 1831 0 
L 50 4666 
L 709 4666 
L 2188 738 
L 3669 4666 
L 4325 4666 
L 2547 0 
L 1831 0 
z
" transform="scale(0.015625)"/>
        <path id="DejaVuSans-47" d="M 3809 666 
L 3809 1919 
L 2778 1919 
L 2778 2438 
L 4434 2438 
L 4434 434 
Q 4069 175 3628 42 
Q 3188 -91 2688 -91 
Q 1594 -91 976 548 
Q 359 1188 359 2328 
Q 359 3472 976 4111 
Q 1594 4750 2688 4750 
Q 3144 4750 3555 4637 
Q 3966 4525 4313 4306 
L 4313 3634 
Q 3963 3931 3569 4081 
Q 3175 4231 2741 4231 
Q 1884 4231 1454 3753 
Q 1025 3275 1025 2328 
Q 1025 1384 1454 906 
Q 1884 428 2741 428 
Q 3075 428 3337 486 
Q 3600 544 3809 666 
z
" transform="scale(0.015625)"/>
       </defs>
       <use xlink:href="#DejaVuSans-41"/>
       <use xlink:href="#DejaVuSans-56" transform="translate(62.033203 0)"/>
       <use xlink:href="#DejaVuSans-47" transform="translate(130.441406 0)"/>
      </g>
     </g>
    </g>
    <g id="ytick_2">
     <g id="line2d_14">
      <g>
       <use xlink:href="#me67a74bad0" x="53.235547" y="41.613621" style="fill: #7a7a7a; stroke: #7a7a7a; stroke-width: 0.5"/>
      </g>
     </g>
     <g id="text_9">
      <!-- COUNT -->
      <g transform="translate(19.013672 44.463035) scale(0.075 -0.075)">
       <defs>
        <path id="DejaVuSans-43" d="M 4122 4306 
L 4122 3641 
Q 3803 3938 3442 4084 
Q 3081 4231 2675 4231 
Q 1875 4231 1450 3742 
Q 1025 3253 1025 2328 
Q 1025 1406 1450 917 
Q 1875 428 2675 428 
Q 3081 428 3442 575 
Q 3803 722 4122 1019 
L 4122 359 
Q 3791 134 3420 21 
Q 3050 -91 2638 -91 
Q 1578 -91 968 557 
Q 359 1206 359 2328 
Q 359 3453 968 4101 
Q 1578 4750 2638 4750 
Q 3056 4750 3426 4639 
Q 3797 4528 4122 4306 
z
" transform="scale(0.015625)"/>
        <path id="DejaVuSans-4f" d="M 2522 4238 
Q 1834 4238 1429 3725 
Q 1025 3213 1025 2328 
Q 1025 1447 1429 934 
Q 1834 422 2522 422 
Q 3209 422 3611 934 
Q 4013 1447 4013 2328 
Q 4013 3213 3611 3725 
Q 3209 4238 2522 4238 
z
M 2522 4750 
Q 3503 4750 4090 4092 
Q 4678 3434 4678 2328 
Q 4678 1225 4090 567 
Q 3503 -91 2522 -91 
Q 1538 -91 948 565 
Q 359 1222 359 2328 
Q 359 3434 948 4092 
Q 1538 4750 2522 4750 
z
" transform="scale(0.015625)"/>
        <path id="DejaVuSans-55" d="M 556 4666 
L 1191 4666 
L 1191 1831 
Q 1191 1081 1462 751 
Q 1734 422 2344 422 
Q 2950 422 3222 751 
Q 3494 1081 3494 1831 
L 3494 4666 
L 4128 4666 
L 4128 1753 
Q 4128 841 3676 375 
Q 3225 -91 2344 -91 
Q 1459 -91 1007 375 
Q 556 841 556 1753 
L 556 4666 
z
" transform="scale(0.015625)"/>
        <path id="DejaVuSans-4e" d="M 628 4666 
L 1478 4666 
L 3547 763 
L 3547 4666 
L 4159 4666 
L 4159 0 
L 3309 0 
L 1241 3903 
L 1241 0 
L 628 0 
L 628 4666 
z
" transform="scale(0.015625)"/>
        <path id="DejaVuSans-54" d="M -19 4666 
L 3928 4666 
L 3928 4134 
L 2272 4134 
L 2272 0 
L 1638 0 
L 1638 4134 
L -19 4134 
L -19 4666 
z
" transform="scale(0.015625)"/>
       </defs>
       <use xlink:href="#DejaVuSans-43"/>
       <use xlink:href="#DejaVuSans-4f" transform="translate(69.824219 0)"/>
       <use xlink:href="#DejaVuSans-55" transform="translate(148.535156 0)"/>
       <use xlink:href="#DejaVuSans-4e" transform="translate(221.728516 0)"/>
       <use xlink:href="#DejaVuSans-54" transform="translate(296.533203 0)"/>
      </g>
     </g>
    </g>
    <g id="ytick_3">
     <g id="line2d_15">
      <g>
       <use xlink:href="#me67a74bad0" x="53.235547" y="62.470361" style="fill: #7a7a7a; stroke: #7a7a7a; stroke-width: 0.5"/>
      </g>
     </g>
     <g id="text_10">
      <!-- IN -->
      <g transform="translate(38.012109 65.319775) scale(0.075 -0.075)">
       <defs>
        <path id="DejaVuSans-49" d="M 628 4666 
L 1259 4666 
L 1259 0 
L 628 0 
L 628 4666 
z
" transform="scale(0.015625)"/>
       </defs>
       <use xlink:href="#DejaVuSans-49"/>
       <use xlink:href="#DejaVuSans-4e" transform="translate(29.492188 0)"/>
      </g>
     </g>
    </g>
    <g id="ytick_4">
     <g id="line2d_16">
      <g>
       <use xlink:href="#me67a74bad0" x="53.235547" y="83.327101" style="fill: #7a7a7a; stroke: #7a7a7a; stroke-width: 0.5"/>
      </g>
     </g>
     <g id="text_11">
      <!-- MIN -->
      <g transform="translate(31.541016 86.176515) scale(0.075 -0.075)">
       <defs>
        <path id="DejaVuSans-4d" d="M 628 4666 
L 1569 4666 
L 2759 1491 
L 3956 4666 
L 4897 4666 
L 4897 0 
L 4281 0 
L 4281 4097 
L 3078 897 
L 2444 897 
L 1241 4097 
L 1241 0 
L 628 0 
L 628 4666 
z
" transform="scale(0.015625)"/>
       </defs>
       <use xlink:href="#DejaVuSans-4d"/>
       <use xlink:href="#DejaVuSans-49" transform="translate(86.279297 0)"/>
       <use xlink:href="#DejaVuSans-4e" transform="translate(115.771484 0)"/>
      </g>
     </g>
    </g>
    <g id="ytick_5">
     <g id="line2d_17">
      <g>
       <use xlink:href="#me67a74bad0" x="53.235547" y="104.183841" style="fill: #7a7a7a; stroke: #7a7a7a; stroke-width: 0.5"/>
      </g>
     </g>
     <g id="text_12">
      <!-- HAVING -->
      <g transform="translate(16.777734 107.033256) scale(0.075 -0.075)">
       <defs>
        <path id="DejaVuSans-48" d="M 628 4666 
L 1259 4666 
L 1259 2753 
L 3553 2753 
L 3553 4666 
L 4184 4666 
L 4184 0 
L 3553 0 
L 3553 2222 
L 1259 2222 
L 1259 0 
L 628 0 
L 628 4666 
z
" transform="scale(0.015625)"/>
       </defs>
       <use xlink:href="#DejaVuSans-48"/>
       <use xlink:href="#DejaVuSans-41" transform="translate(75.195312 0)"/>
       <use xlink:href="#DejaVuSans-56" transform="translate(137.228516 0)"/>
       <use xlink:href="#DejaVuSans-49" transform="translate(205.636719 0)"/>
       <use xlink:href="#DejaVuSans-4e" transform="translate(235.128906 0)"/>
       <use xlink:href="#DejaVuSans-47" transform="translate(309.933594 0)"/>
      </g>
     </g>
    </g>
    <g id="ytick_6">
     <g id="line2d_18">
      <g>
       <use xlink:href="#me67a74bad0" x="53.235547" y="125.040582" style="fill: #7a7a7a; stroke: #7a7a7a; stroke-width: 0.5"/>
      </g>
     </g>
     <g id="text_13">
      <!-- NESTED -->
      <g transform="translate(15.629297 127.889996) scale(0.075 -0.075)">
       <defs>
        <path id="DejaVuSans-45" d="M 628 4666 
L 3578 4666 
L 3578 4134 
L 1259 4134 
L 1259 2753 
L 3481 2753 
L 3481 2222 
L 1259 2222 
L 1259 531 
L 3634 531 
L 3634 0 
L 628 0 
L 628 4666 
z
" transform="scale(0.015625)"/>
        <path id="DejaVuSans-53" d="M 3425 4513 
L 3425 3897 
Q 3066 4069 2747 4153 
Q 2428 4238 2131 4238 
Q 1616 4238 1336 4038 
Q 1056 3838 1056 3469 
Q 1056 3159 1242 3001 
Q 1428 2844 1947 2747 
L 2328 2669 
Q 3034 2534 3370 2195 
Q 3706 1856 3706 1288 
Q 3706 609 3251 259 
Q 2797 -91 1919 -91 
Q 1588 -91 1214 -16 
Q 841 59 441 206 
L 441 856 
Q 825 641 1194 531 
Q 1563 422 1919 422 
Q 2459 422 2753 634 
Q 3047 847 3047 1241 
Q 3047 1584 2836 1778 
Q 2625 1972 2144 2069 
L 1759 2144 
Q 1053 2284 737 2584 
Q 422 2884 422 3419 
Q 422 4038 858 4394 
Q 1294 4750 2059 4750 
Q 2388 4750 2728 4690 
Q 3069 4631 3425 4513 
z
" transform="scale(0.015625)"/>
        <path id="DejaVuSans-44" d="M 1259 4147 
L 1259 519 
L 2022 519 
Q 2988 519 3436 956 
Q 3884 1394 3884 2338 
Q 3884 3275 3436 3711 
Q 2988 4147 2022 4147 
L 1259 4147 
z
M 628 4666 
L 1925 4666 
Q 3281 4666 3915 4102 
Q 4550 3538 4550 2338 
Q 4550 1131 3912 565 
Q 3275 0 1925 0 
L 628 0 
L 628 4666 
z
" transform="scale(0.015625)"/>
       </defs>
       <use xlink:href="#DejaVuSans-4e"/>
       <use xlink:href="#DejaVuSans-45" transform="translate(74.804688 0)"/>
       <use xlink:href="#DejaVuSans-53" transform="translate(137.988281 0)"/>
       <use xlink:href="#DejaVuSans-54" transform="translate(201.464844 0)"/>
       <use xlink:href="#DejaVuSans-45" transform="translate(262.548828 0)"/>
       <use xlink:href="#DejaVuSans-44" transform="translate(325.732422 0)"/>
      </g>
     </g>
    </g>
    <g id="ytick_7">
     <g id="line2d_19">
      <g>
       <use xlink:href="#me67a74bad0" x="53.235547" y="145.897322" style="fill: #7a7a7a; stroke: #7a7a7a; stroke-width: 0.5"/>
      </g>
     </g>
     <g id="text_14">
      <!-- MAX -->
      <g transform="translate(29.096484 148.746736) scale(0.075 -0.075)">
       <defs>
        <path id="DejaVuSans-58" d="M 403 4666 
L 1081 4666 
L 2241 2931 
L 3406 4666 
L 4084 4666 
L 2584 2425 
L 4184 0 
L 3506 0 
L 2194 1984 
L 872 0 
L 191 0 
L 1856 2491 
L 403 4666 
z
" transform="scale(0.015625)"/>
       </defs>
       <use xlink:href="#DejaVuSans-4d"/>
       <use xlink:href="#DejaVuSans-41" transform="translate(86.279297 0)"/>
       <use xlink:href="#DejaVuSans-58" transform="translate(154.6875 0)"/>
      </g>
     </g>
    </g>
    <g id="ytick_8">
     <g id="line2d_20">
      <g>
       <use xlink:href="#me67a74bad0" x="53.235547" y="166.754062" style="fill: #7a7a7a; stroke: #7a7a7a; stroke-width: 0.5"/>
      </g>
     </g>
     <g id="text_15">
      <!-- JOIN -->
      <g transform="translate(29.895703 169.603476) scale(0.075 -0.075)">
       <defs>
        <path id="DejaVuSans-4a" d="M 628 4666 
L 1259 4666 
L 1259 325 
Q 1259 -519 939 -900 
Q 619 -1281 -91 -1281 
L -331 -1281 
L -331 -750 
L -134 -750 
Q 284 -750 456 -515 
Q 628 -281 628 325 
L 628 4666 
z
" transform="scale(0.015625)"/>
       </defs>
       <use xlink:href="#DejaVuSans-4a"/>
       <use xlink:href="#DejaVuSans-4f" transform="translate(29.492188 0)"/>
       <use xlink:href="#DejaVuSans-49" transform="translate(108.203125 0)"/>
       <use xlink:href="#DejaVuSans-4e" transform="translate(137.695312 0)"/>
      </g>
     </g>
    </g>
    <g id="ytick_9">
     <g id="line2d_21">
      <g>
       <use xlink:href="#me67a74bad0" x="53.235547" y="187.610802" style="fill: #7a7a7a; stroke: #7a7a7a; stroke-width: 0.5"/>
      </g>
     </g>
     <g id="text_16">
      <!-- SUM -->
      <g transform="translate(29.114062 190.460216) scale(0.075 -0.075)">
       <use xlink:href="#DejaVuSans-53"/>
       <use xlink:href="#DejaVuSans-55" transform="translate(63.476562 0)"/>
       <use xlink:href="#DejaVuSans-4d" transform="translate(136.669922 0)"/>
      </g>
     </g>
    </g>
    <g id="ytick_10">
     <g id="line2d_22">
      <g>
       <use xlink:href="#me67a74bad0" x="53.235547" y="208.467542" style="fill: #7a7a7a; stroke: #7a7a7a; stroke-width: 0.5"/>
      </g>
     </g>
     <g id="text_17">
      <!-- EXISTS -->
      <g transform="translate(19.642969 211.316956) scale(0.075 -0.075)">
       <use xlink:href="#DejaVuSans-45"/>
       <use xlink:href="#DejaVuSans-58" transform="translate(63.183594 0)"/>
       <use xlink:href="#DejaVuSans-49" transform="translate(131.689453 0)"/>
       <use xlink:href="#DejaVuSans-53" transform="translate(161.181641 0)"/>
       <use xlink:href="#DejaVuSans-54" transform="translate(224.658203 0)"/>
       <use xlink:href="#DejaVuSans-53" transform="translate(285.742188 0)"/>
      </g>
     </g>
    </g>
    <g id="ytick_11">
     <g id="line2d_23">
      <g>
       <use xlink:href="#me67a74bad0" x="53.235547" y="229.324282" style="fill: #7a7a7a; stroke: #7a7a7a; stroke-width: 0.5"/>
      </g>
     </g>
     <g id="text_18">
      <!-- SELECT -->
      <g transform="translate(17.599219 232.173696) scale(0.075 -0.075)">
       <defs>
        <path id="DejaVuSans-4c" d="M 628 4666 
L 1259 4666 
L 1259 531 
L 3531 531 
L 3531 0 
L 628 0 
L 628 4666 
z
" transform="scale(0.015625)"/>
       </defs>
       <use xlink:href="#DejaVuSans-53"/>
       <use xlink:href="#DejaVuSans-45" transform="translate(63.476562 0)"/>
       <use xlink:href="#DejaVuSans-4c" transform="translate(126.660156 0)"/>
       <use xlink:href="#DejaVuSans-45" transform="translate(182.373047 0)"/>
       <use xlink:href="#DejaVuSans-43" transform="translate(245.556641 0)"/>
       <use xlink:href="#DejaVuSans-54" transform="translate(315.380859 0)"/>
      </g>
     </g>
    </g>
    <g id="ytick_12">
     <g id="line2d_24">
      <g>
       <use xlink:href="#me67a74bad0" x="53.235547" y="250.181022" style="fill: #7a7a7a; stroke: #7a7a7a; stroke-width: 0.5"/>
      </g>
     </g>
     <g id="text_19">
      <!-- DISTINCT -->
      <g transform="translate(10.864453 253.030436) scale(0.075 -0.075)">
       <use xlink:href="#DejaVuSans-44"/>
       <use xlink:href="#DejaVuSans-49" transform="translate(77.001953 0)"/>
       <use xlink:href="#DejaVuSans-53" transform="translate(106.494141 0)"/>
       <use xlink:href="#DejaVuSans-54" transform="translate(169.970703 0)"/>
       <use xlink:href="#DejaVuSans-49" transform="translate(231.054688 0)"/>
       <use xlink:href="#DejaVuSans-4e" transform="translate(260.546875 0)"/>
       <use xlink:href="#DejaVuSans-43" transform="translate(335.351562 0)"/>
       <use xlink:href="#DejaVuSans-54" transform="translate(405.175781 0)"/>
      </g>
     </g>
    </g>
    <g id="ytick_13">
     <g id="line2d_25">
      <g>
       <use xlink:href="#me67a74bad0" x="53.235547" y="271.037762" style="fill: #7a7a7a; stroke: #7a7a7a; stroke-width: 0.5"/>
      </g>
     </g>
     <g id="text_20">
      <!-- WHERE -->
      <g transform="translate(18.090234 273.887176) scale(0.075 -0.075)">
       <defs>
        <path id="DejaVuSans-57" d="M 213 4666 
L 850 4666 
L 1831 722 
L 2809 4666 
L 3519 4666 
L 4500 722 
L 5478 4666 
L 6119 4666 
L 4947 0 
L 4153 0 
L 3169 4050 
L 2175 0 
L 1381 0 
L 213 4666 
z
" transform="scale(0.015625)"/>
        <path id="DejaVuSans-52" d="M 2841 2188 
Q 3044 2119 3236 1894 
Q 3428 1669 3622 1275 
L 4263 0 
L 3584 0 
L 2988 1197 
Q 2756 1666 2539 1819 
Q 2322 1972 1947 1972 
L 1259 1972 
L 1259 0 
L 628 0 
L 628 4666 
L 2053 4666 
Q 2853 4666 3247 4331 
Q 3641 3997 3641 3322 
Q 3641 2881 3436 2590 
Q 3231 2300 2841 2188 
z
M 1259 4147 
L 1259 2491 
L 2053 2491 
Q 2509 2491 2742 2702 
Q 2975 2913 2975 3322 
Q 2975 3731 2742 3939 
Q 2509 4147 2053 4147 
L 1259 4147 
z
" transform="scale(0.015625)"/>
       </defs>
       <use xlink:href="#DejaVuSans-57"/>
       <use xlink:href="#DejaVuSans-48" transform="translate(98.876953 0)"/>
       <use xlink:href="#DejaVuSans-45" transform="translate(174.072266 0)"/>
       <use xlink:href="#DejaVuSans-52" transform="translate(237.255859 0)"/>
       <use xlink:href="#DejaVuSans-45" transform="translate(306.738281 0)"/>
      </g>
     </g>
    </g>
    <g id="ytick_14">
     <g id="line2d_26">
      <g>
       <use xlink:href="#me67a74bad0" x="53.235547" y="291.894502" style="fill: #7a7a7a; stroke: #7a7a7a; stroke-width: 0.5"/>
      </g>
     </g>
     <g id="text_21">
      <!-- GROUP BY -->
      <g transform="translate(7.2 294.743917) scale(0.075 -0.075)">
       <defs>
        <path id="DejaVuSans-50" d="M 1259 4147 
L 1259 2394 
L 2053 2394 
Q 2494 2394 2734 2622 
Q 2975 2850 2975 3272 
Q 2975 3691 2734 3919 
Q 2494 4147 2053 4147 
L 1259 4147 
z
M 628 4666 
L 2053 4666 
Q 2838 4666 3239 4311 
Q 3641 3956 3641 3272 
Q 3641 2581 3239 2228 
Q 2838 1875 2053 1875 
L 1259 1875 
L 1259 0 
L 628 0 
L 628 4666 
z
" transform="scale(0.015625)"/>
        <path id="DejaVuSans-42" d="M 1259 2228 
L 1259 519 
L 2272 519 
Q 2781 519 3026 730 
Q 3272 941 3272 1375 
Q 3272 1813 3026 2020 
Q 2781 2228 2272 2228 
L 1259 2228 
z
M 1259 4147 
L 1259 2741 
L 2194 2741 
Q 2656 2741 2882 2914 
Q 3109 3088 3109 3444 
Q 3109 3797 2882 3972 
Q 2656 4147 2194 4147 
L 1259 4147 
z
M 628 4666 
L 2241 4666 
Q 2963 4666 3353 4366 
Q 3744 4066 3744 3513 
Q 3744 3084 3544 2831 
Q 3344 2578 2956 2516 
Q 3422 2416 3680 2098 
Q 3938 1781 3938 1306 
Q 3938 681 3513 340 
Q 3088 0 2303 0 
L 628 0 
L 628 4666 
z
" transform="scale(0.015625)"/>
        <path id="DejaVuSans-59" d="M -13 4666 
L 666 4666 
L 1959 2747 
L 3244 4666 
L 3922 4666 
L 2272 2222 
L 2272 0 
L 1638 0 
L 1638 2222 
L -13 4666 
z
" transform="scale(0.015625)"/>
       </defs>
       <use xlink:href="#DejaVuSans-47"/>
       <use xlink:href="#DejaVuSans-52" transform="translate(77.490234 0)"/>
       <use xlink:href="#DejaVuSans-4f" transform="translate(146.972656 0)"/>
       <use xlink:href="#DejaVuSans-55" transform="translate(225.683594 0)"/>
       <use xlink:href="#DejaVuSans-50" transform="translate(298.876953 0)"/>
       <use xlink:href="#DejaVuSans-20" transform="translate(359.179688 0)"/>
       <use xlink:href="#DejaVuSans-42" transform="translate(390.966797 0)"/>
       <use xlink:href="#DejaVuSans-59" transform="translate(454.070312 0)"/>
      </g>
     </g>
    </g>
    <g id="ytick_15">
     <g id="line2d_27">
      <g>
       <use xlink:href="#me67a74bad0" x="53.235547" y="312.751243" style="fill: #7a7a7a; stroke: #7a7a7a; stroke-width: 0.5"/>
      </g>
     </g>
     <g id="text_22">
      <!-- ORDER BY -->
      <g transform="translate(7.297266 315.600657) scale(0.075 -0.075)">
       <use xlink:href="#DejaVuSans-4f"/>
       <use xlink:href="#DejaVuSans-52" transform="translate(78.710938 0)"/>
       <use xlink:href="#DejaVuSans-44" transform="translate(148.193359 0)"/>
       <use xlink:href="#DejaVuSans-45" transform="translate(225.195312 0)"/>
       <use xlink:href="#DejaVuSans-52" transform="translate(288.378906 0)"/>
       <use xlink:href="#DejaVuSans-20" transform="translate(357.861328 0)"/>
       <use xlink:href="#DejaVuSans-42" transform="translate(389.648438 0)"/>
       <use xlink:href="#DejaVuSans-59" transform="translate(452.751953 0)"/>
      </g>
     </g>
    </g>
    <g id="ytick_16">
     <g id="line2d_28">
      <g>
       <use xlink:href="#me67a74bad0" x="53.235547" y="333.607983" style="fill: #7a7a7a; stroke: #7a7a7a; stroke-width: 0.5"/>
      </g>
     </g>
     <g id="text_23">
      <!-- LIMIT -->
      <g transform="translate(26.179688 336.457397) scale(0.075 -0.075)">
       <use xlink:href="#DejaVuSans-4c"/>
       <use xlink:href="#DejaVuSans-49" transform="translate(55.712891 0)"/>
       <use xlink:href="#DejaVuSans-4d" transform="translate(85.205078 0)"/>
       <use xlink:href="#DejaVuSans-49" transform="translate(171.484375 0)"/>
       <use xlink:href="#DejaVuSans-54" transform="translate(200.976562 0)"/>
      </g>
     </g>
    </g>
   </g>
   <g id="patch_3">
    <path d="M 53.963309 13.039887 
L 204.124244 13.039887 
Q 204.852006 13.039887 204.852006 20.756881 
L 204.852006 20.756881 
Q 204.852006 28.473875 204.124244 28.473875 
L 53.963309 28.473875 
Q 53.235547 28.473875 53.235547 20.756881 
L 53.235547 20.756881 
Q 53.235547 13.039887 53.963309 13.039887 
z
" clip-path="url(#pc9ff961d64)" style="fill: #59a14f"/>
   </g>
   <g id="patch_4">
    <path d="M 53.963309 33.896627 
L 189.53753 33.896627 
Q 190.265292 33.896627 190.265292 41.613621 
L 190.265292 41.613621 
Q 190.265292 49.330615 189.53753 49.330615 
L 53.963309 49.330615 
Q 53.235547 49.330615 53.235547 41.613621 
L 53.235547 41.613621 
Q 53.235547 33.896627 53.963309 33.896627 
z
" clip-path="url(#pc9ff961d64)" style="fill: #59a14f"/>
   </g>
   <g id="patch_5">
    <path d="M 53.963309 54.753367 
L 189.098906 54.753367 
Q 189.826668 54.753367 189.826668 62.470361 
L 189.826668 62.470361 
Q 189.826668 70.187355 189.098906 70.187355 
L 53.963309 70.187355 
Q 53.235547 70.187355 53.235547 62.470361 
L 53.235547 62.470361 
Q 53.235547 54.753367 53.963309 54.753367 
z
" clip-path="url(#pc9ff961d64)" style="fill: #59a14f"/>
   </g>
   <g id="patch_6">
    <path d="M 53.963309 75.610108 
L 184.728399 75.610108 
Q 185.456161 75.610108 185.456161 83.327101 
L 185.456161 83.327101 
Q 185.456161 91.044095 184.728399 91.044095 
L 53.963309 91.044095 
Q 53.235547 91.044095 53.235547 83.327101 
L 53.235547 83.327101 
Q 53.235547 75.610108 53.963309 75.610108 
z
" clip-path="url(#pc9ff961d64)" style="fill: #4e79a7"/>
   </g>
   <g id="patch_7">
    <path d="M 53.963309 96.466848 
L 176.260788 96.466848 
Q 176.98855 96.466848 176.98855 104.183841 
L 176.98855 104.183841 
Q 176.98855 111.900835 176.260788 111.900835 
L 53.963309 111.900835 
Q 53.235547 111.900835 53.235547 104.183841 
L 53.235547 104.183841 
Q 53.235547 96.466848 53.963309 96.466848 
z
" clip-path="url(#pc9ff961d64)" style="fill: #4e79a7"/>
   </g>
   <g id="patch_8">
    <path d="M 53.963309 117.323588 
L 162.65557 117.323588 
Q 163.383332 117.323588 163.383332 125.040582 
L 163.383332 125.040582 
Q 163.383332 132.757575 162.65557 132.757575 
L 53.963309 132.757575 
Q 53.235547 132.757575 53.235547 125.040582 
L 53.235547 125.040582 
Q 53.235547 117.323588 53.963309 117.323588 
z
" clip-path="url(#pc9ff961d64)" style="fill: #4e79a7"/>
   </g>
   <g id="patch_9">
    <path d="M 53.963309 138.180328 
L 161.782255 138.180328 
Q 162.510017 138.180328 162.510017 145.897322 
L 162.510017 145.897322 
Q 162.510017 153.614316 161.782255 153.614316 
L 53.963309 153.614316 
Q 53.235547 153.614316 53.235547 145.897322 
L 53.235547 145.897322 
Q 53.235547 138.180328 53.963309 138.180328 
z
" clip-path="url(#pc9ff961d64)" style="fill: #4e79a7"/>
   </g>
   <g id="patch_10">
    <path d="M 53.963309 159.037068 
L 155.771333 159.037068 
Q 156.499095 159.037068 156.499095 166.754062 
L 156.499095 166.754062 
Q 156.499095 174.471056 155.771333 174.471056 
L 53.963309 174.471056 
Q 53.235547 174.471056 53.235547 166.754062 
L 53.235547 166.754062 
Q 53.235547 159.037068 53.963309 159.037068 
z
" clip-path="url(#pc9ff961d64)" style="fill: #4e79a7"/>
   </g>
   <g id="patch_11">
    <path d="M 53.963309 179.893808 
L 138.834144 179.893808 
Q 139.561906 179.893808 139.561906 187.610802 
L 139.561906 187.610802 
Q 139.561906 195.327796 138.834144 195.327796 
L 53.963309 195.327796 
Q 53.235547 195.327796 53.235547 187.610802 
L 53.235547 187.610802 
Q 53.235547 179.893808 53.963309 179.893808 
z
" clip-path="url(#pc9ff961d64)" style="fill: #4e79a7"/>
   </g>
   <g id="patch_12">
    <path d="M 53.963309 200.750548 
L 136.648891 200.750548 
Q 137.376653 200.750548 137.376653 208.467542 
L 137.376653 208.467542 
Q 137.376653 216.184536 136.648891 216.184536 
L 53.963309 216.184536 
Q 53.235547 216.184536 53.235547 208.467542 
L 53.235547 208.467542 
Q 53.235547 200.750548 53.963309 200.750548 
z
" clip-path="url(#pc9ff961d64)" style="fill: #4e79a7"/>
   </g>
   <g id="patch_13">
    <path d="M 53.963309 221.607288 
L 134.463638 221.607288 
Q 135.1914 221.607288 135.1914 229.324282 
L 135.1914 229.324282 
Q 135.1914 237.041276 134.463638 237.041276 
L 53.963309 237.041276 
Q 53.235547 237.041276 53.235547 229.324282 
L 53.235547 229.324282 
Q 53.235547 221.607288 53.963309 221.607288 
z
" clip-path="url(#pc9ff961d64)" style="fill: #4e79a7"/>
   </g>
   <g id="patch_14">
    <path d="M 53.963309 242.464028 
L 126.814267 242.464028 
Q 127.542029 242.464028 127.542029 250.181022 
L 127.542029 250.181022 
Q 127.542029 257.898016 126.814267 257.898016 
L 53.963309 257.898016 
Q 53.235547 257.898016 53.235547 250.181022 
L 53.235547 250.181022 
Q 53.235547 242.464028 53.963309 242.464028 
z
" clip-path="url(#pc9ff961d64)" style="fill: #4e79a7"/>
   </g>
   <g id="patch_15">
    <path d="M 53.963309 263.320769 
L 99.222247 263.320769 
Q 99.950009 263.320769 99.950009 271.037762 
L 99.950009 271.037762 
Q 99.950009 278.754756 99.222247 278.754756 
L 53.963309 278.754756 
Q 53.235547 278.754756 53.235547 271.037762 
L 53.235547 271.037762 
Q 53.235547 263.320769 53.963309 263.320769 
z
" clip-path="url(#pc9ff961d64)" style="fill: #4e79a7"/>
   </g>
   <g id="patch_16">
    <path d="M 53.963309 284.177509 
L 93.813204 284.177509 
Q 94.540966 284.177509 94.540966 291.894502 
L 94.540966 291.894502 
Q 94.540966 299.611496 93.813204 299.611496 
L 53.963309 299.611496 
Q 53.235547 299.611496 53.235547 291.894502 
L 53.235547 291.894502 
Q 53.235547 284.177509 53.963309 284.177509 
z
" clip-path="url(#pc9ff961d64)" style="fill: #e15759"/>
   </g>
   <g id="patch_17">
    <path d="M 53.963309 305.034249 
L 83.105266 305.034249 
Q 83.833028 305.034249 83.833028 312.751243 
L 83.833028 312.751243 
Q 83.833028 320.468236 83.105266 320.468236 
L 53.963309 320.468236 
Q 53.235547 320.468236 53.235547 312.751243 
L 53.235547 312.751243 
Q 53.235547 305.034249 53.963309 305.034249 
z
" clip-path="url(#pc9ff961d64)" style="fill: #e15759"/>
   </g>
   <g id="patch_18">
    <path d="M 53.963309 325.890989 
L 61.248798 325.890989 
Q 61.97656 325.890989 61.97656 333.607983 
L 61.97656 333.607983 
Q 61.97656 341.324977 61.248798 341.324977 
L 53.963309 341.324977 
Q 53.235547 341.324977 53.235547 333.607983 
L 53.235547 333.607983 
Q 53.235547 325.890989 53.963309 325.890989 
z
" clip-path="url(#pc9ff961d64)" style="fill: #e15759"/>
   </g>
   <g id="patch_19">
    <path d="M 53.235547 347.164864 
L 53.235547 7.2 
" style="fill: none; stroke: #7a7a7a; stroke-width: 0.5; stroke-linejoin: miter; stroke-linecap: square"/>
   </g>
   <g id="patch_20">
    <path d="M 53.235547 347.164864 
L 249.92802 347.164864 
" style="fill: none; stroke: #7a7a7a; stroke-width: 0.5; stroke-linejoin: miter; stroke-linecap: square"/>
   </g>
   <g id="text_24">
    <!-- 77.08% -->
    <g style="fill: #2f2f2f" transform="translate(208.097432 20.559765) scale(0.076 -0.076)">
     <defs>
      <path id="DejaVuSans-Bold-37" d="M 428 4666 
L 3944 4666 
L 3944 3988 
L 2125 0 
L 953 0 
L 2675 3781 
L 428 3781 
L 428 4666 
z
" transform="scale(0.015625)"/>
      <path id="DejaVuSans-Bold-2e" d="M 653 1209 
L 1778 1209 
L 1778 0 
L 653 0 
L 653 1209 
z
" transform="scale(0.015625)"/>
      <path id="DejaVuSans-Bold-30" d="M 2944 2338 
Q 2944 3213 2780 3570 
Q 2616 3928 2228 3928 
Q 1841 3928 1675 3570 
Q 1509 3213 1509 2338 
Q 1509 1453 1675 1090 
Q 1841 728 2228 728 
Q 2613 728 2778 1090 
Q 2944 1453 2944 2338 
z
M 4147 2328 
Q 4147 1169 3647 539 
Q 3147 -91 2228 -91 
Q 1306 -91 806 539 
Q 306 1169 306 2328 
Q 306 3491 806 4120 
Q 1306 4750 2228 4750 
Q 3147 4750 3647 4120 
Q 4147 3491 4147 2328 
z
" transform="scale(0.015625)"/>
      <path id="DejaVuSans-Bold-38" d="M 2228 2088 
Q 1891 2088 1709 1903 
Q 1528 1719 1528 1375 
Q 1528 1031 1709 848 
Q 1891 666 2228 666 
Q 2563 666 2741 848 
Q 2919 1031 2919 1375 
Q 2919 1722 2741 1905 
Q 2563 2088 2228 2088 
z
M 1350 2484 
Q 925 2613 709 2878 
Q 494 3144 494 3541 
Q 494 4131 934 4440 
Q 1375 4750 2228 4750 
Q 3075 4750 3515 4442 
Q 3956 4134 3956 3541 
Q 3956 3144 3739 2878 
Q 3522 2613 3097 2484 
Q 3572 2353 3814 2058 
Q 4056 1763 4056 1313 
Q 4056 619 3595 264 
Q 3134 -91 2228 -91 
Q 1319 -91 855 264 
Q 391 619 391 1313 
Q 391 1763 633 2058 
Q 875 2353 1350 2484 
z
M 1631 3419 
Q 1631 3141 1786 2991 
Q 1941 2841 2228 2841 
Q 2509 2841 2662 2991 
Q 2816 3141 2816 3419 
Q 2816 3697 2662 3845 
Q 2509 3994 2228 3994 
Q 1941 3994 1786 3844 
Q 1631 3694 1631 3419 
z
" transform="scale(0.015625)"/>
      <path id="DejaVuSans-Bold-25" d="M 4959 1925 
Q 4738 1925 4616 1733 
Q 4494 1541 4494 1184 
Q 4494 825 4614 633 
Q 4734 441 4959 441 
Q 5184 441 5303 633 
Q 5422 825 5422 1184 
Q 5422 1541 5301 1733 
Q 5181 1925 4959 1925 
z
M 4959 2450 
Q 5541 2450 5875 2112 
Q 6209 1775 6209 1184 
Q 6209 594 5875 251 
Q 5541 -91 4959 -91 
Q 4378 -91 4042 251 
Q 3706 594 3706 1184 
Q 3706 1772 4042 2111 
Q 4378 2450 4959 2450 
z
M 2094 -91 
L 1403 -91 
L 4319 4750 
L 5013 4750 
L 2094 -91 
z
M 1453 4750 
Q 2034 4750 2367 4411 
Q 2700 4072 2700 3481 
Q 2700 2891 2367 2550 
Q 2034 2209 1453 2209 
Q 872 2209 539 2550 
Q 206 2891 206 3481 
Q 206 4072 539 4411 
Q 872 4750 1453 4750 
z
M 1453 4225 
Q 1228 4225 1106 4031 
Q 984 3838 984 3481 
Q 984 3122 1106 2926 
Q 1228 2731 1453 2731 
Q 1678 2731 1798 2926 
Q 1919 3122 1919 3481 
Q 1919 3838 1797 4031 
Q 1675 4225 1453 4225 
z
" transform="scale(0.015625)"/>
     </defs>
     <use xlink:href="#DejaVuSans-Bold-37"/>
     <use xlink:href="#DejaVuSans-Bold-37" transform="translate(69.580078 0)"/>
     <use xlink:href="#DejaVuSans-Bold-2e" transform="translate(139.160156 0)"/>
     <use xlink:href="#DejaVuSans-Bold-30" transform="translate(177.148438 0)"/>
     <use xlink:href="#DejaVuSans-Bold-38" transform="translate(246.728516 0)"/>
     <use xlink:href="#DejaVuSans-Bold-25" transform="translate(316.308594 0)"/>
    </g>
   </g>
   <g id="text_25">
    <!-- (185/240) -->
    <g style="fill: #666666" transform="translate(208.097432 25.777178) scale(0.061 -0.061)">
     <defs>
      <path id="DejaVuSans-35" d="M 691 4666 
L 3169 4666 
L 3169 4134 
L 1269 4134 
L 1269 2991 
Q 1406 3038 1543 3061 
Q 1681 3084 1819 3084 
Q 2600 3084 3056 2656 
Q 3513 2228 3513 1497 
Q 3513 744 3044 326 
Q 2575 -91 1722 -91 
Q 1428 -91 1123 -41 
Q 819 9 494 109 
L 494 744 
Q 775 591 1075 516 
Q 1375 441 1709 441 
Q 2250 441 2565 725 
Q 2881 1009 2881 1497 
Q 2881 1984 2565 2268 
Q 2250 2553 1709 2553 
Q 1456 2553 1204 2497 
Q 953 2441 691 2322 
L 691 4666 
z
" transform="scale(0.015625)"/>
      <path id="DejaVuSans-2f" d="M 1625 4666 
L 2156 4666 
L 531 -594 
L 0 -594 
L 1625 4666 
z
" transform="scale(0.015625)"/>
     </defs>
     <use xlink:href="#DejaVuSans-28"/>
     <use xlink:href="#DejaVuSans-31" transform="translate(39.013672 0)"/>
     <use xlink:href="#DejaVuSans-38" transform="translate(102.636719 0)"/>
     <use xlink:href="#DejaVuSans-35" transform="translate(166.259766 0)"/>
     <use xlink:href="#DejaVuSans-2f" transform="translate(229.882812 0)"/>
     <use xlink:href="#DejaVuSans-32" transform="translate(263.574219 0)"/>
     <use xlink:href="#DejaVuSans-34" transform="translate(327.197266 0)"/>
     <use xlink:href="#DejaVuSans-30" transform="translate(390.820312 0)"/>
     <use xlink:href="#DejaVuSans-29" transform="translate(454.443359 0)"/>
    </g>
   </g>
   <g id="text_26">
    <!-- 69.67% -->
    <g style="fill: #2f2f2f" transform="translate(193.510718 41.416505) scale(0.076 -0.076)">
     <defs>
      <path id="DejaVuSans-Bold-36" d="M 2316 2303 
Q 2000 2303 1842 2098 
Q 1684 1894 1684 1484 
Q 1684 1075 1842 870 
Q 2000 666 2316 666 
Q 2634 666 2792 870 
Q 2950 1075 2950 1484 
Q 2950 1894 2792 2098 
Q 2634 2303 2316 2303 
z
M 3803 4544 
L 3803 3681 
Q 3506 3822 3243 3889 
Q 2981 3956 2731 3956 
Q 2194 3956 1894 3657 
Q 1594 3359 1544 2772 
Q 1750 2925 1990 3001 
Q 2231 3078 2516 3078 
Q 3231 3078 3670 2659 
Q 4109 2241 4109 1563 
Q 4109 813 3618 361 
Q 3128 -91 2303 -91 
Q 1394 -91 895 523 
Q 397 1138 397 2266 
Q 397 3422 980 4083 
Q 1563 4744 2578 4744 
Q 2900 4744 3203 4694 
Q 3506 4644 3803 4544 
z
" transform="scale(0.015625)"/>
      <path id="DejaVuSans-Bold-39" d="M 641 103 
L 641 966 
Q 928 831 1190 764 
Q 1453 697 1709 697 
Q 2247 697 2547 995 
Q 2847 1294 2900 1881 
Q 2688 1725 2447 1647 
Q 2206 1569 1925 1569 
Q 1209 1569 770 1986 
Q 331 2403 331 3084 
Q 331 3838 820 4291 
Q 1309 4744 2131 4744 
Q 3044 4744 3544 4128 
Q 4044 3513 4044 2388 
Q 4044 1231 3459 570 
Q 2875 -91 1856 -91 
Q 1528 -91 1228 -42 
Q 928 6 641 103 
z
M 2125 2350 
Q 2441 2350 2600 2554 
Q 2759 2759 2759 3169 
Q 2759 3575 2600 3781 
Q 2441 3988 2125 3988 
Q 1809 3988 1650 3781 
Q 1491 3575 1491 3169 
Q 1491 2759 1650 2554 
Q 1809 2350 2125 2350 
z
" transform="scale(0.015625)"/>
     </defs>
     <use xlink:href="#DejaVuSans-Bold-36"/>
     <use xlink:href="#DejaVuSans-Bold-39" transform="translate(69.580078 0)"/>
     <use xlink:href="#DejaVuSans-Bold-2e" transform="translate(139.160156 0)"/>
     <use xlink:href="#DejaVuSans-Bold-36" transform="translate(177.148438 0)"/>
     <use xlink:href="#DejaVuSans-Bold-37" transform="translate(246.728516 0)"/>
     <use xlink:href="#DejaVuSans-Bold-25" transform="translate(316.308594 0)"/>
    </g>
   </g>
   <g id="text_27">
    <!-- (209/300) -->
    <g style="fill: #666666" transform="translate(193.510718 46.633918) scale(0.061 -0.061)">
     <defs>
      <path id="DejaVuSans-39" d="M 703 97 
L 703 672 
Q 941 559 1184 500 
Q 1428 441 1663 441 
Q 2288 441 2617 861 
Q 2947 1281 2994 2138 
Q 2813 1869 2534 1725 
Q 2256 1581 1919 1581 
Q 1219 1581 811 2004 
Q 403 2428 403 3163 
Q 403 3881 828 4315 
Q 1253 4750 1959 4750 
Q 2769 4750 3195 4129 
Q 3622 3509 3622 2328 
Q 3622 1225 3098 567 
Q 2575 -91 1691 -91 
Q 1453 -91 1209 -44 
Q 966 3 703 97 
z
M 1959 2075 
Q 2384 2075 2632 2365 
Q 2881 2656 2881 3163 
Q 2881 3666 2632 3958 
Q 2384 4250 1959 4250 
Q 1534 4250 1286 3958 
Q 1038 3666 1038 3163 
Q 1038 2656 1286 2365 
Q 1534 2075 1959 2075 
z
" transform="scale(0.015625)"/>
      <path id="DejaVuSans-33" d="M 2597 2516 
Q 3050 2419 3304 2112 
Q 3559 1806 3559 1356 
Q 3559 666 3084 287 
Q 2609 -91 1734 -91 
Q 1441 -91 1130 -33 
Q 819 25 488 141 
L 488 750 
Q 750 597 1062 519 
Q 1375 441 1716 441 
Q 2309 441 2620 675 
Q 2931 909 2931 1356 
Q 2931 1769 2642 2001 
Q 2353 2234 1838 2234 
L 1294 2234 
L 1294 2753 
L 1863 2753 
Q 2328 2753 2575 2939 
Q 2822 3125 2822 3475 
Q 2822 3834 2567 4026 
Q 2313 4219 1838 4219 
Q 1578 4219 1281 4162 
Q 984 4106 628 3988 
L 628 4550 
Q 988 4650 1302 4700 
Q 1616 4750 1894 4750 
Q 2613 4750 3031 4423 
Q 3450 4097 3450 3541 
Q 3450 3153 3228 2886 
Q 3006 2619 2597 2516 
z
" transform="scale(0.015625)"/>
     </defs>
     <use xlink:href="#DejaVuSans-28"/>
     <use xlink:href="#DejaVuSans-32" transform="translate(39.013672 0)"/>
     <use xlink:href="#DejaVuSans-30" transform="translate(102.636719 0)"/>
     <use xlink:href="#DejaVuSans-39" transform="translate(166.259766 0)"/>
     <use xlink:href="#DejaVuSans-2f" transform="translate(229.882812 0)"/>
     <use xlink:href="#DejaVuSans-33" transform="translate(263.574219 0)"/>
     <use xlink:href="#DejaVuSans-30" transform="translate(327.197266 0)"/>
     <use xlink:href="#DejaVuSans-30" transform="translate(390.820312 0)"/>
     <use xlink:href="#DejaVuSans-29" transform="translate(454.443359 0)"/>
    </g>
   </g>
   <g id="text_28">
    <!-- 69.44% -->
    <g style="fill: #2f2f2f" transform="translate(193.072094 62.273245) scale(0.076 -0.076)">
     <defs>
      <path id="DejaVuSans-Bold-34" d="M 2356 3675 
L 1038 1722 
L 2356 1722 
L 2356 3675 
z
M 2156 4666 
L 3494 4666 
L 3494 1722 
L 4159 1722 
L 4159 850 
L 3494 850 
L 3494 0 
L 2356 0 
L 2356 850 
L 288 850 
L 288 1881 
L 2156 4666 
z
" transform="scale(0.015625)"/>
     </defs>
     <use xlink:href="#DejaVuSans-Bold-36"/>
     <use xlink:href="#DejaVuSans-Bold-39" transform="translate(69.580078 0)"/>
     <use xlink:href="#DejaVuSans-Bold-2e" transform="translate(139.160156 0)"/>
     <use xlink:href="#DejaVuSans-Bold-34" transform="translate(177.148438 0)"/>
     <use xlink:href="#DejaVuSans-Bold-34" transform="translate(246.728516 0)"/>
     <use xlink:href="#DejaVuSans-Bold-25" transform="translate(316.308594 0)"/>
    </g>
   </g>
   <g id="text_29">
    <!-- (125/180) -->
    <g style="fill: #666666" transform="translate(193.072094 67.490658) scale(0.061 -0.061)">
     <use xlink:href="#DejaVuSans-28"/>
     <use xlink:href="#DejaVuSans-31" transform="translate(39.013672 0)"/>
     <use xlink:href="#DejaVuSans-32" transform="translate(102.636719 0)"/>
     <use xlink:href="#DejaVuSans-35" transform="translate(166.259766 0)"/>
     <use xlink:href="#DejaVuSans-2f" transform="translate(229.882812 0)"/>
     <use xlink:href="#DejaVuSans-31" transform="translate(263.574219 0)"/>
     <use xlink:href="#DejaVuSans-38" transform="translate(327.197266 0)"/>
     <use xlink:href="#DejaVuSans-30" transform="translate(390.820312 0)"/>
     <use xlink:href="#DejaVuSans-29" transform="translate(454.443359 0)"/>
    </g>
   </g>
   <g id="text_30">
    <!-- 67.22% -->
    <g style="fill: #2f2f2f" transform="translate(188.701587 83.129985) scale(0.076 -0.076)">
     <defs>
      <path id="DejaVuSans-Bold-32" d="M 1844 884 
L 3897 884 
L 3897 0 
L 506 0 
L 506 884 
L 2209 2388 
Q 2438 2594 2547 2791 
Q 2656 2988 2656 3200 
Q 2656 3528 2436 3728 
Q 2216 3928 1850 3928 
Q 1569 3928 1234 3808 
Q 900 3688 519 3450 
L 519 4475 
Q 925 4609 1322 4679 
Q 1719 4750 2100 4750 
Q 2938 4750 3402 4381 
Q 3866 4013 3866 3353 
Q 3866 2972 3669 2642 
Q 3472 2313 2841 1759 
L 1844 884 
z
" transform="scale(0.015625)"/>
     </defs>
     <use xlink:href="#DejaVuSans-Bold-36"/>
     <use xlink:href="#DejaVuSans-Bold-37" transform="translate(69.580078 0)"/>
     <use xlink:href="#DejaVuSans-Bold-2e" transform="translate(139.160156 0)"/>
     <use xlink:href="#DejaVuSans-Bold-32" transform="translate(177.148438 0)"/>
     <use xlink:href="#DejaVuSans-Bold-32" transform="translate(246.728516 0)"/>
     <use xlink:href="#DejaVuSans-Bold-25" transform="translate(316.308594 0)"/>
    </g>
   </g>
   <g id="text_31">
    <!-- (121/180) -->
    <g style="fill: #666666" transform="translate(188.701587 88.347399) scale(0.061 -0.061)">
     <use xlink:href="#DejaVuSans-28"/>
     <use xlink:href="#DejaVuSans-31" transform="translate(39.013672 0)"/>
     <use xlink:href="#DejaVuSans-32" transform="translate(102.636719 0)"/>
     <use xlink:href="#DejaVuSans-31" transform="translate(166.259766 0)"/>
     <use xlink:href="#DejaVuSans-2f" transform="translate(229.882812 0)"/>
     <use xlink:href="#DejaVuSans-31" transform="translate(263.574219 0)"/>
     <use xlink:href="#DejaVuSans-38" transform="translate(327.197266 0)"/>
     <use xlink:href="#DejaVuSans-30" transform="translate(390.820312 0)"/>
     <use xlink:href="#DejaVuSans-29" transform="translate(454.443359 0)"/>
    </g>
   </g>
   <g id="text_32">
    <!-- 62.92% -->
    <g style="fill: #2f2f2f" transform="translate(180.233976 103.986725) scale(0.076 -0.076)">
     <use xlink:href="#DejaVuSans-Bold-36"/>
     <use xlink:href="#DejaVuSans-Bold-32" transform="translate(69.580078 0)"/>
     <use xlink:href="#DejaVuSans-Bold-2e" transform="translate(139.160156 0)"/>
     <use xlink:href="#DejaVuSans-Bold-39" transform="translate(177.148438 0)"/>
     <use xlink:href="#DejaVuSans-Bold-32" transform="translate(246.728516 0)"/>
     <use xlink:href="#DejaVuSans-Bold-25" transform="translate(316.308594 0)"/>
    </g>
   </g>
   <g id="text_33">
    <!-- (151/240) -->
    <g style="fill: #666666" transform="translate(180.233976 109.204139) scale(0.061 -0.061)">
     <use xlink:href="#DejaVuSans-28"/>
     <use xlink:href="#DejaVuSans-31" transform="translate(39.013672 0)"/>
     <use xlink:href="#DejaVuSans-35" transform="translate(102.636719 0)"/>
     <use xlink:href="#DejaVuSans-31" transform="translate(166.259766 0)"/>
     <use xlink:href="#DejaVuSans-2f" transform="translate(229.882812 0)"/>
     <use xlink:href="#DejaVuSans-32" transform="translate(263.574219 0)"/>
     <use xlink:href="#DejaVuSans-34" transform="translate(327.197266 0)"/>
     <use xlink:href="#DejaVuSans-30" transform="translate(390.820312 0)"/>
     <use xlink:href="#DejaVuSans-29" transform="translate(454.443359 0)"/>
    </g>
   </g>
   <g id="text_34">
    <!-- 56.00% -->
    <g style="fill: #2f2f2f" transform="translate(166.628758 124.843465) scale(0.076 -0.076)">
     <defs>
      <path id="DejaVuSans-Bold-35" d="M 678 4666 
L 3669 4666 
L 3669 3781 
L 1638 3781 
L 1638 3059 
Q 1775 3097 1914 3117 
Q 2053 3138 2203 3138 
Q 3056 3138 3531 2711 
Q 4006 2284 4006 1522 
Q 4006 766 3489 337 
Q 2972 -91 2053 -91 
Q 1656 -91 1267 -14 
Q 878 63 494 219 
L 494 1166 
Q 875 947 1217 837 
Q 1559 728 1863 728 
Q 2300 728 2551 942 
Q 2803 1156 2803 1522 
Q 2803 1891 2551 2103 
Q 2300 2316 1863 2316 
Q 1603 2316 1309 2248 
Q 1016 2181 678 2041 
L 678 4666 
z
" transform="scale(0.015625)"/>
     </defs>
     <use xlink:href="#DejaVuSans-Bold-35"/>
     <use xlink:href="#DejaVuSans-Bold-36" transform="translate(69.580078 0)"/>
     <use xlink:href="#DejaVuSans-Bold-2e" transform="translate(139.160156 0)"/>
     <use xlink:href="#DejaVuSans-Bold-30" transform="translate(177.148438 0)"/>
     <use xlink:href="#DejaVuSans-Bold-30" transform="translate(246.728516 0)"/>
     <use xlink:href="#DejaVuSans-Bold-25" transform="translate(316.308594 0)"/>
    </g>
   </g>
   <g id="text_35">
    <!-- (168/300) -->
    <g style="fill: #666666" transform="translate(166.628758 130.060879) scale(0.061 -0.061)">
     <use xlink:href="#DejaVuSans-28"/>
     <use xlink:href="#DejaVuSans-31" transform="translate(39.013672 0)"/>
     <use xlink:href="#DejaVuSans-36" transform="translate(102.636719 0)"/>
     <use xlink:href="#DejaVuSans-38" transform="translate(166.259766 0)"/>
     <use xlink:href="#DejaVuSans-2f" transform="translate(229.882812 0)"/>
     <use xlink:href="#DejaVuSans-33" transform="translate(263.574219 0)"/>
     <use xlink:href="#DejaVuSans-30" transform="translate(327.197266 0)"/>
     <use xlink:href="#DejaVuSans-30" transform="translate(390.820312 0)"/>
     <use xlink:href="#DejaVuSans-29" transform="translate(454.443359 0)"/>
    </g>
   </g>
   <g id="text_36">
    <!-- 55.56% -->
    <g style="fill: #2f2f2f" transform="translate(165.755443 145.700205) scale(0.076 -0.076)">
     <use xlink:href="#DejaVuSans-Bold-35"/>
     <use xlink:href="#DejaVuSans-Bold-35" transform="translate(69.580078 0)"/>
     <use xlink:href="#DejaVuSans-Bold-2e" transform="translate(139.160156 0)"/>
     <use xlink:href="#DejaVuSans-Bold-35" transform="translate(177.148438 0)"/>
     <use xlink:href="#DejaVuSans-Bold-36" transform="translate(246.728516 0)"/>
     <use xlink:href="#DejaVuSans-Bold-25" transform="translate(316.308594 0)"/>
    </g>
   </g>
   <g id="text_37">
    <!-- (100/180) -->
    <g style="fill: #666666" transform="translate(165.755443 150.917619) scale(0.061 -0.061)">
     <use xlink:href="#DejaVuSans-28"/>
     <use xlink:href="#DejaVuSans-31" transform="translate(39.013672 0)"/>
     <use xlink:href="#DejaVuSans-30" transform="translate(102.636719 0)"/>
     <use xlink:href="#DejaVuSans-30" transform="translate(166.259766 0)"/>
     <use xlink:href="#DejaVuSans-2f" transform="translate(229.882812 0)"/>
     <use xlink:href="#DejaVuSans-31" transform="translate(263.574219 0)"/>
     <use xlink:href="#DejaVuSans-38" transform="translate(327.197266 0)"/>
     <use xlink:href="#DejaVuSans-30" transform="translate(390.820312 0)"/>
     <use xlink:href="#DejaVuSans-29" transform="translate(454.443359 0)"/>
    </g>
   </g>
   <g id="text_38">
    <!-- 52.50% -->
    <g style="fill: #2f2f2f" transform="translate(159.744521 166.556945) scale(0.076 -0.076)">
     <use xlink:href="#DejaVuSans-Bold-35"/>
     <use xlink:href="#DejaVuSans-Bold-32" transform="translate(69.580078 0)"/>
     <use xlink:href="#DejaVuSans-Bold-2e" transform="translate(139.160156 0)"/>
     <use xlink:href="#DejaVuSans-Bold-35" transform="translate(177.148438 0)"/>
     <use xlink:href="#DejaVuSans-Bold-30" transform="translate(246.728516 0)"/>
     <use xlink:href="#DejaVuSans-Bold-25" transform="translate(316.308594 0)"/>
    </g>
   </g>
   <g id="text_39">
    <!-- (189/360) -->
    <g style="fill: #666666" transform="translate(159.744521 171.774359) scale(0.061 -0.061)">
     <use xlink:href="#DejaVuSans-28"/>
     <use xlink:href="#DejaVuSans-31" transform="translate(39.013672 0)"/>
     <use xlink:href="#DejaVuSans-38" transform="translate(102.636719 0)"/>
     <use xlink:href="#DejaVuSans-39" transform="translate(166.259766 0)"/>
     <use xlink:href="#DejaVuSans-2f" transform="translate(229.882812 0)"/>
     <use xlink:href="#DejaVuSans-33" transform="translate(263.574219 0)"/>
     <use xlink:href="#DejaVuSans-36" transform="translate(327.197266 0)"/>
     <use xlink:href="#DejaVuSans-30" transform="translate(390.820312 0)"/>
     <use xlink:href="#DejaVuSans-29" transform="translate(454.443359 0)"/>
    </g>
   </g>
   <g id="text_40">
    <!-- 43.89% -->
    <g style="fill: #2f2f2f" transform="translate(142.807332 187.413686) scale(0.076 -0.076)">
     <defs>
      <path id="DejaVuSans-Bold-33" d="M 2981 2516 
Q 3453 2394 3698 2092 
Q 3944 1791 3944 1325 
Q 3944 631 3412 270 
Q 2881 -91 1863 -91 
Q 1503 -91 1142 -33 
Q 781 25 428 141 
L 428 1069 
Q 766 900 1098 814 
Q 1431 728 1753 728 
Q 2231 728 2486 893 
Q 2741 1059 2741 1369 
Q 2741 1688 2480 1852 
Q 2219 2016 1709 2016 
L 1228 2016 
L 1228 2791 
L 1734 2791 
Q 2188 2791 2409 2933 
Q 2631 3075 2631 3366 
Q 2631 3634 2415 3781 
Q 2200 3928 1806 3928 
Q 1516 3928 1219 3862 
Q 922 3797 628 3669 
L 628 4550 
Q 984 4650 1334 4700 
Q 1684 4750 2022 4750 
Q 2931 4750 3382 4451 
Q 3834 4153 3834 3553 
Q 3834 3144 3618 2883 
Q 3403 2622 2981 2516 
z
" transform="scale(0.015625)"/>
     </defs>
     <use xlink:href="#DejaVuSans-Bold-34"/>
     <use xlink:href="#DejaVuSans-Bold-33" transform="translate(69.580078 0)"/>
     <use xlink:href="#DejaVuSans-Bold-2e" transform="translate(139.160156 0)"/>
     <use xlink:href="#DejaVuSans-Bold-38" transform="translate(177.148438 0)"/>
     <use xlink:href="#DejaVuSans-Bold-39" transform="translate(246.728516 0)"/>
     <use xlink:href="#DejaVuSans-Bold-25" transform="translate(316.308594 0)"/>
    </g>
   </g>
   <g id="text_41">
    <!-- (79/180) -->
    <g style="fill: #666666" transform="translate(142.807332 192.631099) scale(0.061 -0.061)">
     <defs>
      <path id="DejaVuSans-37" d="M 525 4666 
L 3525 4666 
L 3525 4397 
L 1831 0 
L 1172 0 
L 2766 4134 
L 525 4134 
L 525 4666 
z
" transform="scale(0.015625)"/>
     </defs>
     <use xlink:href="#DejaVuSans-28"/>
     <use xlink:href="#DejaVuSans-37" transform="translate(39.013672 0)"/>
     <use xlink:href="#DejaVuSans-39" transform="translate(102.636719 0)"/>
     <use xlink:href="#DejaVuSans-2f" transform="translate(166.259766 0)"/>
     <use xlink:href="#DejaVuSans-31" transform="translate(199.951172 0)"/>
     <use xlink:href="#DejaVuSans-38" transform="translate(263.574219 0)"/>
     <use xlink:href="#DejaVuSans-30" transform="translate(327.197266 0)"/>
     <use xlink:href="#DejaVuSans-29" transform="translate(390.820312 0)"/>
    </g>
   </g>
   <g id="text_42">
    <!-- 42.78% -->
    <g style="fill: #2f2f2f" transform="translate(140.622079 208.270426) scale(0.076 -0.076)">
     <use xlink:href="#DejaVuSans-Bold-34"/>
     <use xlink:href="#DejaVuSans-Bold-32" transform="translate(69.580078 0)"/>
     <use xlink:href="#DejaVuSans-Bold-2e" transform="translate(139.160156 0)"/>
     <use xlink:href="#DejaVuSans-Bold-37" transform="translate(177.148438 0)"/>
     <use xlink:href="#DejaVuSans-Bold-38" transform="translate(246.728516 0)"/>
     <use xlink:href="#DejaVuSans-Bold-25" transform="translate(316.308594 0)"/>
    </g>
   </g>
   <g id="text_43">
    <!-- (77/180) -->
    <g style="fill: #666666" transform="translate(140.622079 213.487839) scale(0.061 -0.061)">
     <use xlink:href="#DejaVuSans-28"/>
     <use xlink:href="#DejaVuSans-37" transform="translate(39.013672 0)"/>
     <use xlink:href="#DejaVuSans-37" transform="translate(102.636719 0)"/>
     <use xlink:href="#DejaVuSans-2f" transform="translate(166.259766 0)"/>
     <use xlink:href="#DejaVuSans-31" transform="translate(199.951172 0)"/>
     <use xlink:href="#DejaVuSans-38" transform="translate(263.574219 0)"/>
     <use xlink:href="#DejaVuSans-30" transform="translate(327.197266 0)"/>
     <use xlink:href="#DejaVuSans-29" transform="translate(390.820312 0)"/>
    </g>
   </g>
   <g id="text_44">
    <!-- 41.67% -->
    <g style="fill: #2f2f2f" transform="translate(138.436825 229.127166) scale(0.076 -0.076)">
     <defs>
      <path id="DejaVuSans-Bold-31" d="M 750 831 
L 1813 831 
L 1813 3847 
L 722 3622 
L 722 4441 
L 1806 4666 
L 2950 4666 
L 2950 831 
L 4013 831 
L 4013 0 
L 750 0 
L 750 831 
z
" transform="scale(0.015625)"/>
     </defs>
     <use xlink:href="#DejaVuSans-Bold-34"/>
     <use xlink:href="#DejaVuSans-Bold-31" transform="translate(69.580078 0)"/>
     <use xlink:href="#DejaVuSans-Bold-2e" transform="translate(139.160156 0)"/>
     <use xlink:href="#DejaVuSans-Bold-36" transform="translate(177.148438 0)"/>
     <use xlink:href="#DejaVuSans-Bold-37" transform="translate(246.728516 0)"/>
     <use xlink:href="#DejaVuSans-Bold-25" transform="translate(316.308594 0)"/>
    </g>
   </g>
   <g id="text_45">
    <!-- (75/180) -->
    <g style="fill: #666666" transform="translate(138.436825 234.344579) scale(0.061 -0.061)">
     <use xlink:href="#DejaVuSans-28"/>
     <use xlink:href="#DejaVuSans-37" transform="translate(39.013672 0)"/>
     <use xlink:href="#DejaVuSans-35" transform="translate(102.636719 0)"/>
     <use xlink:href="#DejaVuSans-2f" transform="translate(166.259766 0)"/>
     <use xlink:href="#DejaVuSans-31" transform="translate(199.951172 0)"/>
     <use xlink:href="#DejaVuSans-38" transform="translate(263.574219 0)"/>
     <use xlink:href="#DejaVuSans-30" transform="translate(327.197266 0)"/>
     <use xlink:href="#DejaVuSans-29" transform="translate(390.820312 0)"/>
    </g>
   </g>
   <g id="text_46">
    <!-- 37.78% -->
    <g style="fill: #2f2f2f" transform="translate(130.787455 249.983906) scale(0.076 -0.076)">
     <use xlink:href="#DejaVuSans-Bold-33"/>
     <use xlink:href="#DejaVuSans-Bold-37" transform="translate(69.580078 0)"/>
     <use xlink:href="#DejaVuSans-Bold-2e" transform="translate(139.160156 0)"/>
     <use xlink:href="#DejaVuSans-Bold-37" transform="translate(177.148438 0)"/>
     <use xlink:href="#DejaVuSans-Bold-38" transform="translate(246.728516 0)"/>
     <use xlink:href="#DejaVuSans-Bold-25" transform="translate(316.308594 0)"/>
    </g>
   </g>
   <g id="text_47">
    <!-- (68/180) -->
    <g style="fill: #666666" transform="translate(130.787455 255.201319) scale(0.061 -0.061)">
     <use xlink:href="#DejaVuSans-28"/>
     <use xlink:href="#DejaVuSans-36" transform="translate(39.013672 0)"/>
     <use xlink:href="#DejaVuSans-38" transform="translate(102.636719 0)"/>
     <use xlink:href="#DejaVuSans-2f" transform="translate(166.259766 0)"/>
     <use xlink:href="#DejaVuSans-31" transform="translate(199.951172 0)"/>
     <use xlink:href="#DejaVuSans-38" transform="translate(263.574219 0)"/>
     <use xlink:href="#DejaVuSans-30" transform="translate(327.197266 0)"/>
     <use xlink:href="#DejaVuSans-29" transform="translate(390.820312 0)"/>
    </g>
   </g>
   <g id="text_48">
    <!-- 23.75% -->
    <g style="fill: #2f2f2f" transform="translate(103.195435 270.840646) scale(0.076 -0.076)">
     <use xlink:href="#DejaVuSans-Bold-32"/>
     <use xlink:href="#DejaVuSans-Bold-33" transform="translate(69.580078 0)"/>
     <use xlink:href="#DejaVuSans-Bold-2e" transform="translate(139.160156 0)"/>
     <use xlink:href="#DejaVuSans-Bold-37" transform="translate(177.148438 0)"/>
     <use xlink:href="#DejaVuSans-Bold-35" transform="translate(246.728516 0)"/>
     <use xlink:href="#DejaVuSans-Bold-25" transform="translate(316.308594 0)"/>
    </g>
   </g>
   <g id="text_49">
    <!-- (57/240) -->
    <g style="fill: #666666" transform="translate(103.195435 276.05806) scale(0.061 -0.061)">
     <use xlink:href="#DejaVuSans-28"/>
     <use xlink:href="#DejaVuSans-35" transform="translate(39.013672 0)"/>
     <use xlink:href="#DejaVuSans-37" transform="translate(102.636719 0)"/>
     <use xlink:href="#DejaVuSans-2f" transform="translate(166.259766 0)"/>
     <use xlink:href="#DejaVuSans-32" transform="translate(199.951172 0)"/>
     <use xlink:href="#DejaVuSans-34" transform="translate(263.574219 0)"/>
     <use xlink:href="#DejaVuSans-30" transform="translate(327.197266 0)"/>
     <use xlink:href="#DejaVuSans-29" transform="translate(390.820312 0)"/>
    </g>
   </g>
   <g id="text_50">
    <!-- 21.00% -->
    <g style="fill: #2f2f2f" transform="translate(97.786392 291.697386) scale(0.076 -0.076)">
     <use xlink:href="#DejaVuSans-Bold-32"/>
     <use xlink:href="#DejaVuSans-Bold-31" transform="translate(69.580078 0)"/>
     <use xlink:href="#DejaVuSans-Bold-2e" transform="translate(139.160156 0)"/>
     <use xlink:href="#DejaVuSans-Bold-30" transform="translate(177.148438 0)"/>
     <use xlink:href="#DejaVuSans-Bold-30" transform="translate(246.728516 0)"/>
     <use xlink:href="#DejaVuSans-Bold-25" transform="translate(316.308594 0)"/>
    </g>
   </g>
   <g id="text_51">
    <!-- (63/300) -->
    <g style="fill: #666666" transform="translate(97.786392 296.9148) scale(0.061 -0.061)">
     <use xlink:href="#DejaVuSans-28"/>
     <use xlink:href="#DejaVuSans-36" transform="translate(39.013672 0)"/>
     <use xlink:href="#DejaVuSans-33" transform="translate(102.636719 0)"/>
     <use xlink:href="#DejaVuSans-2f" transform="translate(166.259766 0)"/>
     <use xlink:href="#DejaVuSans-33" transform="translate(199.951172 0)"/>
     <use xlink:href="#DejaVuSans-30" transform="translate(263.574219 0)"/>
     <use xlink:href="#DejaVuSans-30" transform="translate(327.197266 0)"/>
     <use xlink:href="#DejaVuSans-29" transform="translate(390.820312 0)"/>
    </g>
   </g>
   <g id="text_52">
    <!-- 15.56% -->
    <g style="fill: #2f2f2f" transform="translate(87.078454 312.554126) scale(0.076 -0.076)">
     <use xlink:href="#DejaVuSans-Bold-31"/>
     <use xlink:href="#DejaVuSans-Bold-35" transform="translate(69.580078 0)"/>
     <use xlink:href="#DejaVuSans-Bold-2e" transform="translate(139.160156 0)"/>
     <use xlink:href="#DejaVuSans-Bold-35" transform="translate(177.148438 0)"/>
     <use xlink:href="#DejaVuSans-Bold-36" transform="translate(246.728516 0)"/>
     <use xlink:href="#DejaVuSans-Bold-25" transform="translate(316.308594 0)"/>
    </g>
   </g>
   <g id="text_53">
    <!-- (28/180) -->
    <g style="fill: #666666" transform="translate(87.078454 317.77154) scale(0.061 -0.061)">
     <use xlink:href="#DejaVuSans-28"/>
     <use xlink:href="#DejaVuSans-32" transform="translate(39.013672 0)"/>
     <use xlink:href="#DejaVuSans-38" transform="translate(102.636719 0)"/>
     <use xlink:href="#DejaVuSans-2f" transform="translate(166.259766 0)"/>
     <use xlink:href="#DejaVuSans-31" transform="translate(199.951172 0)"/>
     <use xlink:href="#DejaVuSans-38" transform="translate(263.574219 0)"/>
     <use xlink:href="#DejaVuSans-30" transform="translate(327.197266 0)"/>
     <use xlink:href="#DejaVuSans-29" transform="translate(390.820312 0)"/>
    </g>
   </g>
   <g id="text_54">
    <!-- 4.44% -->
    <g style="fill: #2f2f2f" transform="translate(65.221986 333.410866) scale(0.076 -0.076)">
     <use xlink:href="#DejaVuSans-Bold-34"/>
     <use xlink:href="#DejaVuSans-Bold-2e" transform="translate(69.580078 0)"/>
     <use xlink:href="#DejaVuSans-Bold-34" transform="translate(107.568359 0)"/>
     <use xlink:href="#DejaVuSans-Bold-34" transform="translate(177.148438 0)"/>
     <use xlink:href="#DejaVuSans-Bold-25" transform="translate(246.728516 0)"/>
    </g>
   </g>
   <g id="text_55">
    <!-- (8/180) -->
    <g style="fill: #666666" transform="translate(65.221986 338.62828) scale(0.061 -0.061)">
     <use xlink:href="#DejaVuSans-28"/>
     <use xlink:href="#DejaVuSans-38" transform="translate(39.013672 0)"/>
     <use xlink:href="#DejaVuSans-2f" transform="translate(102.636719 0)"/>
     <use xlink:href="#DejaVuSans-31" transform="translate(136.328125 0)"/>
     <use xlink:href="#DejaVuSans-38" transform="translate(199.951172 0)"/>
     <use xlink:href="#DejaVuSans-30" transform="translate(263.574219 0)"/>
     <use xlink:href="#DejaVuSans-29" transform="translate(327.197266 0)"/>
    </g>
   </g>
  </g>
 </g>
 <defs>
  <clipPath id="pc9ff961d64">
   <rect x="53.235547" y="7.2" width="196.692473" height="339.964864"/>
  </clipPath>
 </defs>
</svg>
